<?xml version="1.0" encoding="utf-8" standalone="no"?>
<!DOCTYPE svg PUBLIC "-//W3C//DTD SVG 1.1//EN"
  "http://www.w3.org/Graphics/SVG/1.1/DTD/svg11.dtd">
<svg xmlns:xlink="http://www.w3.org/1999/xlink" width="864pt" height="720pt" viewBox="0 0 864 720" xmlns="http://www.w3.org/2000/svg" version="1.1">
 <metadata>
  <rdf:RDF xmlns:dc="http://purl.org/dc/elements/1.1/" xmlns:cc="http://creativecommons.org/ns#" xmlns:rdf="http://www.w3.org/1999/02/22-rdf-syntax-ns#">
   <cc:Work>
    <dc:type rdf:resource="http://purl.org/dc/dcmitype/StillImage"/>
    <dc:date>2025-12-16T00:15:11.610130</dc:date>
    <dc:format>image/svg+xml</dc:format>
    <dc:creator>
     <cc:Agent>
      <dc:title>Matplotlib v3.8.2, https://matplotlib.org/</dc:title>
     </cc:Agent>
    </dc:creator>
   </cc:Work>
  </rdf:RDF>
 </metadata>
 <defs>
  <style type="text/css">*{stroke-linejoin: round; stroke-linecap: butt}</style>
 </defs>
 <g id="figure_1">
  <g id="patch_1">
   <path d="M 0 720 
L 864 720 
L 864 0 
L 0 0 
z
" style="fill: #ffffff"/>
  </g>
  <g id="axes_1">
   <g id="patch_2">
    <path d="M 57.17 323.44 
L 424.289935 323.44 
L 424.289935 26.88 
L 57.17 26.88 
z
" style="fill: #ffffff"/>
   </g>
   <g id="patch_3">
    <path d="M 73.85727 323.44 
L 80.532178 323.44 
L 80.532178 41.001905 
L 73.85727 41.001905 
z
" clip-path="url(#pbe419da3d1)" style="fill: #0000ff; opacity: 0.7"/>
   </g>
   <g id="patch_4">
    <path d="M 80.532178 323.44 
L 87.207086 323.44 
L 87.207086 310.800505 
L 80.532178 310.800505 
z
" clip-path="url(#pbe419da3d1)" style="fill: #0000ff; opacity: 0.7"/>
   </g>
   <g id="patch_5">
    <path d="M 87.207086 323.44 
L 93.881993 323.44 
L 93.881993 317.97849 
L 87.207086 317.97849 
z
" clip-path="url(#pbe419da3d1)" style="fill: #0000ff; opacity: 0.7"/>
   </g>
   <g id="patch_6">
    <path d="M 93.881993 323.44 
L 100.556901 323.44 
L 100.556901 321.567482 
L 93.881993 321.567482 
z
" clip-path="url(#pbe419da3d1)" style="fill: #0000ff; opacity: 0.7"/>
   </g>
   <g id="patch_7">
    <path d="M 100.556901 323.44 
L 107.231809 323.44 
L 107.231809 322.659784 
L 100.556901 322.659784 
z
" clip-path="url(#pbe419da3d1)" style="fill: #0000ff; opacity: 0.7"/>
   </g>
   <g id="patch_8">
    <path d="M 107.231809 323.44 
L 113.906717 323.44 
L 113.906717 322.971871 
L 107.231809 322.971871 
z
" clip-path="url(#pbe419da3d1)" style="fill: #0000ff; opacity: 0.7"/>
   </g>
   <g id="patch_9">
    <path d="M 113.906717 323.44 
L 120.581625 323.44 
L 120.581625 323.127914 
L 113.906717 323.127914 
z
" clip-path="url(#pbe419da3d1)" style="fill: #0000ff; opacity: 0.7"/>
   </g>
   <g id="patch_10">
    <path d="M 120.581625 323.44 
L 127.256533 323.44 
L 127.256533 323.44 
L 120.581625 323.44 
z
" clip-path="url(#pbe419da3d1)" style="fill: #0000ff; opacity: 0.7"/>
   </g>
   <g id="patch_11">
    <path d="M 127.256533 323.44 
L 133.931441 323.44 
L 133.931441 322.971871 
L 127.256533 322.971871 
z
" clip-path="url(#pbe419da3d1)" style="fill: #0000ff; opacity: 0.7"/>
   </g>
   <g id="patch_12">
    <path d="M 133.931441 323.44 
L 140.606349 323.44 
L 140.606349 323.283957 
L 133.931441 323.283957 
z
" clip-path="url(#pbe419da3d1)" style="fill: #0000ff; opacity: 0.7"/>
   </g>
   <g id="patch_13">
    <path d="M 140.606349 323.44 
L 147.281257 323.44 
L 147.281257 323.44 
L 140.606349 323.44 
z
" clip-path="url(#pbe419da3d1)" style="fill: #0000ff; opacity: 0.7"/>
   </g>
   <g id="patch_14">
    <path d="M 147.281257 323.44 
L 153.956165 323.44 
L 153.956165 323.44 
L 147.281257 323.44 
z
" clip-path="url(#pbe419da3d1)" style="fill: #0000ff; opacity: 0.7"/>
   </g>
   <g id="patch_15">
    <path d="M 153.956165 323.44 
L 160.631073 323.44 
L 160.631073 323.44 
L 153.956165 323.44 
z
" clip-path="url(#pbe419da3d1)" style="fill: #0000ff; opacity: 0.7"/>
   </g>
   <g id="patch_16">
    <path d="M 160.631073 323.44 
L 167.30598 323.44 
L 167.30598 323.44 
L 160.631073 323.44 
z
" clip-path="url(#pbe419da3d1)" style="fill: #0000ff; opacity: 0.7"/>
   </g>
   <g id="patch_17">
    <path d="M 167.30598 323.44 
L 173.980888 323.44 
L 173.980888 323.44 
L 167.30598 323.44 
z
" clip-path="url(#pbe419da3d1)" style="fill: #0000ff; opacity: 0.7"/>
   </g>
   <g id="patch_18">
    <path d="M 173.980888 323.44 
L 180.655796 323.44 
L 180.655796 323.44 
L 173.980888 323.44 
z
" clip-path="url(#pbe419da3d1)" style="fill: #0000ff; opacity: 0.7"/>
   </g>
   <g id="patch_19">
    <path d="M 180.655796 323.44 
L 187.330704 323.44 
L 187.330704 323.283957 
L 180.655796 323.283957 
z
" clip-path="url(#pbe419da3d1)" style="fill: #0000ff; opacity: 0.7"/>
   </g>
   <g id="patch_20">
    <path d="M 187.330704 323.44 
L 194.005612 323.44 
L 194.005612 323.44 
L 187.330704 323.44 
z
" clip-path="url(#pbe419da3d1)" style="fill: #0000ff; opacity: 0.7"/>
   </g>
   <g id="patch_21">
    <path d="M 194.005612 323.44 
L 200.68052 323.44 
L 200.68052 323.283957 
L 194.005612 323.283957 
z
" clip-path="url(#pbe419da3d1)" style="fill: #0000ff; opacity: 0.7"/>
   </g>
   <g id="patch_22">
    <path d="M 200.68052 323.44 
L 207.355428 323.44 
L 207.355428 323.283957 
L 200.68052 323.283957 
z
" clip-path="url(#pbe419da3d1)" style="fill: #0000ff; opacity: 0.7"/>
   </g>
   <g id="patch_23">
    <path d="M 207.355428 323.44 
L 214.030336 323.44 
L 214.030336 323.283957 
L 207.355428 323.283957 
z
" clip-path="url(#pbe419da3d1)" style="fill: #0000ff; opacity: 0.7"/>
   </g>
   <g id="patch_24">
    <path d="M 214.030336 323.44 
L 220.705244 323.44 
L 220.705244 323.44 
L 214.030336 323.44 
z
" clip-path="url(#pbe419da3d1)" style="fill: #0000ff; opacity: 0.7"/>
   </g>
   <g id="patch_25">
    <path d="M 220.705244 323.44 
L 227.380152 323.44 
L 227.380152 323.44 
L 220.705244 323.44 
z
" clip-path="url(#pbe419da3d1)" style="fill: #0000ff; opacity: 0.7"/>
   </g>
   <g id="patch_26">
    <path d="M 227.380152 323.44 
L 234.055059 323.44 
L 234.055059 323.283957 
L 227.380152 323.283957 
z
" clip-path="url(#pbe419da3d1)" style="fill: #0000ff; opacity: 0.7"/>
   </g>
   <g id="patch_27">
    <path d="M 234.055059 323.44 
L 240.729967 323.44 
L 240.729967 323.44 
L 234.055059 323.44 
z
" clip-path="url(#pbe419da3d1)" style="fill: #0000ff; opacity: 0.7"/>
   </g>
   <g id="patch_28">
    <path d="M 240.729967 323.44 
L 247.404875 323.44 
L 247.404875 323.44 
L 240.729967 323.44 
z
" clip-path="url(#pbe419da3d1)" style="fill: #0000ff; opacity: 0.7"/>
   </g>
   <g id="patch_29">
    <path d="M 247.404875 323.44 
L 254.079783 323.44 
L 254.079783 323.44 
L 247.404875 323.44 
z
" clip-path="url(#pbe419da3d1)" style="fill: #0000ff; opacity: 0.7"/>
   </g>
   <g id="patch_30">
    <path d="M 254.079783 323.44 
L 260.754691 323.44 
L 260.754691 323.44 
L 254.079783 323.44 
z
" clip-path="url(#pbe419da3d1)" style="fill: #0000ff; opacity: 0.7"/>
   </g>
   <g id="patch_31">
    <path d="M 260.754691 323.44 
L 267.429599 323.44 
L 267.429599 323.44 
L 260.754691 323.44 
z
" clip-path="url(#pbe419da3d1)" style="fill: #0000ff; opacity: 0.7"/>
   </g>
   <g id="patch_32">
    <path d="M 267.429599 323.44 
L 274.104507 323.44 
L 274.104507 323.44 
L 267.429599 323.44 
z
" clip-path="url(#pbe419da3d1)" style="fill: #0000ff; opacity: 0.7"/>
   </g>
   <g id="patch_33">
    <path d="M 274.104507 323.44 
L 280.779415 323.44 
L 280.779415 323.44 
L 274.104507 323.44 
z
" clip-path="url(#pbe419da3d1)" style="fill: #0000ff; opacity: 0.7"/>
   </g>
   <g id="patch_34">
    <path d="M 280.779415 323.44 
L 287.454323 323.44 
L 287.454323 323.44 
L 280.779415 323.44 
z
" clip-path="url(#pbe419da3d1)" style="fill: #0000ff; opacity: 0.7"/>
   </g>
   <g id="patch_35">
    <path d="M 287.454323 323.44 
L 294.129231 323.44 
L 294.129231 323.44 
L 287.454323 323.44 
z
" clip-path="url(#pbe419da3d1)" style="fill: #0000ff; opacity: 0.7"/>
   </g>
   <g id="patch_36">
    <path d="M 294.129231 323.44 
L 300.804138 323.44 
L 300.804138 323.44 
L 294.129231 323.44 
z
" clip-path="url(#pbe419da3d1)" style="fill: #0000ff; opacity: 0.7"/>
   </g>
   <g id="patch_37">
    <path d="M 300.804138 323.44 
L 307.479046 323.44 
L 307.479046 323.44 
L 300.804138 323.44 
z
" clip-path="url(#pbe419da3d1)" style="fill: #0000ff; opacity: 0.7"/>
   </g>
   <g id="patch_38">
    <path d="M 307.479046 323.44 
L 314.153954 323.44 
L 314.153954 323.44 
L 307.479046 323.44 
z
" clip-path="url(#pbe419da3d1)" style="fill: #0000ff; opacity: 0.7"/>
   </g>
   <g id="patch_39">
    <path d="M 314.153954 323.44 
L 320.828862 323.44 
L 320.828862 323.44 
L 314.153954 323.44 
z
" clip-path="url(#pbe419da3d1)" style="fill: #0000ff; opacity: 0.7"/>
   </g>
   <g id="patch_40">
    <path d="M 320.828862 323.44 
L 327.50377 323.44 
L 327.50377 323.44 
L 320.828862 323.44 
z
" clip-path="url(#pbe419da3d1)" style="fill: #0000ff; opacity: 0.7"/>
   </g>
   <g id="patch_41">
    <path d="M 327.50377 323.44 
L 334.178678 323.44 
L 334.178678 323.44 
L 327.50377 323.44 
z
" clip-path="url(#pbe419da3d1)" style="fill: #0000ff; opacity: 0.7"/>
   </g>
   <g id="patch_42">
    <path d="M 334.178678 323.44 
L 340.853586 323.44 
L 340.853586 323.44 
L 334.178678 323.44 
z
" clip-path="url(#pbe419da3d1)" style="fill: #0000ff; opacity: 0.7"/>
   </g>
   <g id="patch_43">
    <path d="M 340.853586 323.44 
L 347.528494 323.44 
L 347.528494 323.44 
L 340.853586 323.44 
z
" clip-path="url(#pbe419da3d1)" style="fill: #0000ff; opacity: 0.7"/>
   </g>
   <g id="patch_44">
    <path d="M 347.528494 323.44 
L 354.203402 323.44 
L 354.203402 323.44 
L 347.528494 323.44 
z
" clip-path="url(#pbe419da3d1)" style="fill: #0000ff; opacity: 0.7"/>
   </g>
   <g id="patch_45">
    <path d="M 354.203402 323.44 
L 360.87831 323.44 
L 360.87831 323.44 
L 354.203402 323.44 
z
" clip-path="url(#pbe419da3d1)" style="fill: #0000ff; opacity: 0.7"/>
   </g>
   <g id="patch_46">
    <path d="M 360.87831 323.44 
L 367.553218 323.44 
L 367.553218 323.44 
L 360.87831 323.44 
z
" clip-path="url(#pbe419da3d1)" style="fill: #0000ff; opacity: 0.7"/>
   </g>
   <g id="patch_47">
    <path d="M 367.553218 323.44 
L 374.228125 323.44 
L 374.228125 323.283957 
L 367.553218 323.283957 
z
" clip-path="url(#pbe419da3d1)" style="fill: #0000ff; opacity: 0.7"/>
   </g>
   <g id="patch_48">
    <path d="M 374.228125 323.44 
L 380.903033 323.44 
L 380.903033 323.44 
L 374.228125 323.44 
z
" clip-path="url(#pbe419da3d1)" style="fill: #0000ff; opacity: 0.7"/>
   </g>
   <g id="patch_49">
    <path d="M 380.903033 323.44 
L 387.577941 323.44 
L 387.577941 323.44 
L 380.903033 323.44 
z
" clip-path="url(#pbe419da3d1)" style="fill: #0000ff; opacity: 0.7"/>
   </g>
   <g id="patch_50">
    <path d="M 387.577941 323.44 
L 394.252849 323.44 
L 394.252849 323.44 
L 387.577941 323.44 
z
" clip-path="url(#pbe419da3d1)" style="fill: #0000ff; opacity: 0.7"/>
   </g>
   <g id="patch_51">
    <path d="M 394.252849 323.44 
L 400.927757 323.44 
L 400.927757 323.44 
L 394.252849 323.44 
z
" clip-path="url(#pbe419da3d1)" style="fill: #0000ff; opacity: 0.7"/>
   </g>
   <g id="patch_52">
    <path d="M 400.927757 323.44 
L 407.602665 323.44 
L 407.602665 323.283957 
L 400.927757 323.283957 
z
" clip-path="url(#pbe419da3d1)" style="fill: #0000ff; opacity: 0.7"/>
   </g>
   <g id="matplotlib.axis_1">
    <g id="xtick_1">
     <g id="line2d_1">
      <defs>
       <path id="md51d7a9144" d="M 0 0 
L 0 3.5 
" style="stroke: #000000; stroke-width: 0.8"/>
      </defs>
      <g>
       <use xlink:href="#md51d7a9144" x="72.869857" y="323.44" style="stroke: #000000; stroke-width: 0.8"/>
      </g>
     </g>
     <g id="text_1">
      <!-- 0 -->
      <g transform="translate(69.688607 338.038438) scale(0.1 -0.1)">
       <defs>
        <path id="DejaVuSans-30" d="M 2034 4250 
Q 1547 4250 1301 3770 
Q 1056 3291 1056 2328 
Q 1056 1369 1301 889 
Q 1547 409 2034 409 
Q 2525 409 2770 889 
Q 3016 1369 3016 2328 
Q 3016 3291 2770 3770 
Q 2525 4250 2034 4250 
z
M 2034 4750 
Q 2819 4750 3233 4129 
Q 3647 3509 3647 2328 
Q 3647 1150 3233 529 
Q 2819 -91 2034 -91 
Q 1250 -91 836 529 
Q 422 1150 422 2328 
Q 422 3509 836 4129 
Q 1250 4750 2034 4750 
z
" transform="scale(0.015625)"/>
       </defs>
       <use xlink:href="#DejaVuSans-30"/>
      </g>
     </g>
    </g>
    <g id="xtick_2">
     <g id="line2d_2">
      <g>
       <use xlink:href="#md51d7a9144" x="122.240478" y="323.44" style="stroke: #000000; stroke-width: 0.8"/>
      </g>
     </g>
     <g id="text_2">
      <!-- 50 -->
      <g transform="translate(115.877978 338.038438) scale(0.1 -0.1)">
       <defs>
        <path id="DejaVuSans-35" d="M 691 4666 
L 3169 4666 
L 3169 4134 
L 1269 4134 
L 1269 2991 
Q 1406 3038 1543 3061 
Q 1681 3084 1819 3084 
Q 2600 3084 3056 2656 
Q 3513 2228 3513 1497 
Q 3513 744 3044 326 
Q 2575 -91 1722 -91 
Q 1428 -91 1123 -41 
Q 819 9 494 109 
L 494 744 
Q 775 591 1075 516 
Q 1375 441 1709 441 
Q 2250 441 2565 725 
Q 2881 1009 2881 1497 
Q 2881 1984 2565 2268 
Q 2250 2553 1709 2553 
Q 1456 2553 1204 2497 
Q 953 2441 691 2322 
L 691 4666 
z
" transform="scale(0.015625)"/>
       </defs>
       <use xlink:href="#DejaVuSans-35"/>
       <use xlink:href="#DejaVuSans-30" x="63.623047"/>
      </g>
     </g>
    </g>
    <g id="xtick_3">
     <g id="line2d_3">
      <g>
       <use xlink:href="#md51d7a9144" x="171.611099" y="323.44" style="stroke: #000000; stroke-width: 0.8"/>
      </g>
     </g>
     <g id="text_3">
      <!-- 100 -->
      <g transform="translate(162.067349 338.038438) scale(0.1 -0.1)">
       <defs>
        <path id="DejaVuSans-31" d="M 794 531 
L 1825 531 
L 1825 4091 
L 703 3866 
L 703 4441 
L 1819 4666 
L 2450 4666 
L 2450 531 
L 3481 531 
L 3481 0 
L 794 0 
L 794 531 
z
" transform="scale(0.015625)"/>
       </defs>
       <use xlink:href="#DejaVuSans-31"/>
       <use xlink:href="#DejaVuSans-30" x="63.623047"/>
       <use xlink:href="#DejaVuSans-30" x="127.246094"/>
      </g>
     </g>
    </g>
    <g id="xtick_4">
     <g id="line2d_4">
      <g>
       <use xlink:href="#md51d7a9144" x="220.981719" y="323.44" style="stroke: #000000; stroke-width: 0.8"/>
      </g>
     </g>
     <g id="text_4">
      <!-- 150 -->
      <g transform="translate(211.437969 338.038438) scale(0.1 -0.1)">
       <use xlink:href="#DejaVuSans-31"/>
       <use xlink:href="#DejaVuSans-35" x="63.623047"/>
       <use xlink:href="#DejaVuSans-30" x="127.246094"/>
      </g>
     </g>
    </g>
    <g id="xtick_5">
     <g id="line2d_5">
      <g>
       <use xlink:href="#md51d7a9144" x="270.35234" y="323.44" style="stroke: #000000; stroke-width: 0.8"/>
      </g>
     </g>
     <g id="text_5">
      <!-- 200 -->
      <g transform="translate(260.80859 338.038438) scale(0.1 -0.1)">
       <defs>
        <path id="DejaVuSans-32" d="M 1228 531 
L 3431 531 
L 3431 0 
L 469 0 
L 469 531 
Q 828 903 1448 1529 
Q 2069 2156 2228 2338 
Q 2531 2678 2651 2914 
Q 2772 3150 2772 3378 
Q 2772 3750 2511 3984 
Q 2250 4219 1831 4219 
Q 1534 4219 1204 4116 
Q 875 4013 500 3803 
L 500 4441 
Q 881 4594 1212 4672 
Q 1544 4750 1819 4750 
Q 2544 4750 2975 4387 
Q 3406 4025 3406 3419 
Q 3406 3131 3298 2873 
Q 3191 2616 2906 2266 
Q 2828 2175 2409 1742 
Q 1991 1309 1228 531 
z
" transform="scale(0.015625)"/>
       </defs>
       <use xlink:href="#DejaVuSans-32"/>
       <use xlink:href="#DejaVuSans-30" x="63.623047"/>
       <use xlink:href="#DejaVuSans-30" x="127.246094"/>
      </g>
     </g>
    </g>
    <g id="xtick_6">
     <g id="line2d_6">
      <g>
       <use xlink:href="#md51d7a9144" x="319.72296" y="323.44" style="stroke: #000000; stroke-width: 0.8"/>
      </g>
     </g>
     <g id="text_6">
      <!-- 250 -->
      <g transform="translate(310.17921 338.038438) scale(0.1 -0.1)">
       <use xlink:href="#DejaVuSans-32"/>
       <use xlink:href="#DejaVuSans-35" x="63.623047"/>
       <use xlink:href="#DejaVuSans-30" x="127.246094"/>
      </g>
     </g>
    </g>
    <g id="xtick_7">
     <g id="line2d_7">
      <g>
       <use xlink:href="#md51d7a9144" x="369.093581" y="323.44" style="stroke: #000000; stroke-width: 0.8"/>
      </g>
     </g>
     <g id="text_7">
      <!-- 300 -->
      <g transform="translate(359.549831 338.038438) scale(0.1 -0.1)">
       <defs>
        <path id="DejaVuSans-33" d="M 2597 2516 
Q 3050 2419 3304 2112 
Q 3559 1806 3559 1356 
Q 3559 666 3084 287 
Q 2609 -91 1734 -91 
Q 1441 -91 1130 -33 
Q 819 25 488 141 
L 488 750 
Q 750 597 1062 519 
Q 1375 441 1716 441 
Q 2309 441 2620 675 
Q 2931 909 2931 1356 
Q 2931 1769 2642 2001 
Q 2353 2234 1838 2234 
L 1294 2234 
L 1294 2753 
L 1863 2753 
Q 2328 2753 2575 2939 
Q 2822 3125 2822 3475 
Q 2822 3834 2567 4026 
Q 2313 4219 1838 4219 
Q 1578 4219 1281 4162 
Q 984 4106 628 3988 
L 628 4550 
Q 988 4650 1302 4700 
Q 1616 4750 1894 4750 
Q 2613 4750 3031 4423 
Q 3450 4097 3450 3541 
Q 3450 3153 3228 2886 
Q 3006 2619 2597 2516 
z
" transform="scale(0.015625)"/>
       </defs>
       <use xlink:href="#DejaVuSans-33"/>
       <use xlink:href="#DejaVuSans-30" x="63.623047"/>
       <use xlink:href="#DejaVuSans-30" x="127.246094"/>
      </g>
     </g>
    </g>
    <g id="xtick_8">
     <g id="line2d_8">
      <g>
       <use xlink:href="#md51d7a9144" x="418.464201" y="323.44" style="stroke: #000000; stroke-width: 0.8"/>
      </g>
     </g>
     <g id="text_8">
      <!-- 350 -->
      <g transform="translate(408.920451 338.038438) scale(0.1 -0.1)">
       <use xlink:href="#DejaVuSans-33"/>
       <use xlink:href="#DejaVuSans-35" x="63.623047"/>
       <use xlink:href="#DejaVuSans-30" x="127.246094"/>
      </g>
     </g>
    </g>
    <g id="text_9">
     <!-- Degree -->
     <g transform="translate(222.533092 351.716563) scale(0.1 -0.1)">
      <defs>
       <path id="DejaVuSans-44" d="M 1259 4147 
L 1259 519 
L 2022 519 
Q 2988 519 3436 956 
Q 3884 1394 3884 2338 
Q 3884 3275 3436 3711 
Q 2988 4147 2022 4147 
L 1259 4147 
z
M 628 4666 
L 1925 4666 
Q 3281 4666 3915 4102 
Q 4550 3538 4550 2338 
Q 4550 1131 3912 565 
Q 3275 0 1925 0 
L 628 0 
L 628 4666 
z
" transform="scale(0.015625)"/>
       <path id="DejaVuSans-65" d="M 3597 1894 
L 3597 1613 
L 953 1613 
Q 991 1019 1311 708 
Q 1631 397 2203 397 
Q 2534 397 2845 478 
Q 3156 559 3463 722 
L 3463 178 
Q 3153 47 2828 -22 
Q 2503 -91 2169 -91 
Q 1331 -91 842 396 
Q 353 884 353 1716 
Q 353 2575 817 3079 
Q 1281 3584 2069 3584 
Q 2775 3584 3186 3129 
Q 3597 2675 3597 1894 
z
M 3022 2063 
Q 3016 2534 2758 2815 
Q 2500 3097 2075 3097 
Q 1594 3097 1305 2825 
Q 1016 2553 972 2059 
L 3022 2063 
z
" transform="scale(0.015625)"/>
       <path id="DejaVuSans-67" d="M 2906 1791 
Q 2906 2416 2648 2759 
Q 2391 3103 1925 3103 
Q 1463 3103 1205 2759 
Q 947 2416 947 1791 
Q 947 1169 1205 825 
Q 1463 481 1925 481 
Q 2391 481 2648 825 
Q 2906 1169 2906 1791 
z
M 3481 434 
Q 3481 -459 3084 -895 
Q 2688 -1331 1869 -1331 
Q 1566 -1331 1297 -1286 
Q 1028 -1241 775 -1147 
L 775 -588 
Q 1028 -725 1275 -790 
Q 1522 -856 1778 -856 
Q 2344 -856 2625 -561 
Q 2906 -266 2906 331 
L 2906 616 
Q 2728 306 2450 153 
Q 2172 0 1784 0 
Q 1141 0 747 490 
Q 353 981 353 1791 
Q 353 2603 747 3093 
Q 1141 3584 1784 3584 
Q 2172 3584 2450 3431 
Q 2728 3278 2906 2969 
L 2906 3500 
L 3481 3500 
L 3481 434 
z
" transform="scale(0.015625)"/>
       <path id="DejaVuSans-72" d="M 2631 2963 
Q 2534 3019 2420 3045 
Q 2306 3072 2169 3072 
Q 1681 3072 1420 2755 
Q 1159 2438 1159 1844 
L 1159 0 
L 581 0 
L 581 3500 
L 1159 3500 
L 1159 2956 
Q 1341 3275 1631 3429 
Q 1922 3584 2338 3584 
Q 2397 3584 2469 3576 
Q 2541 3569 2628 3553 
L 2631 2963 
z
" transform="scale(0.015625)"/>
      </defs>
      <use xlink:href="#DejaVuSans-44"/>
      <use xlink:href="#DejaVuSans-65" x="77.001953"/>
      <use xlink:href="#DejaVuSans-67" x="138.525391"/>
      <use xlink:href="#DejaVuSans-72" x="202.001953"/>
      <use xlink:href="#DejaVuSans-65" x="240.865234"/>
      <use xlink:href="#DejaVuSans-65" x="302.388672"/>
     </g>
    </g>
   </g>
   <g id="matplotlib.axis_2">
    <g id="ytick_1">
     <g id="line2d_9">
      <defs>
       <path id="mc9c689c19e" d="M 0 0 
L -3.5 0 
" style="stroke: #000000; stroke-width: 0.8"/>
      </defs>
      <g>
       <use xlink:href="#mc9c689c19e" x="57.17" y="323.44" style="stroke: #000000; stroke-width: 0.8"/>
      </g>
     </g>
     <g id="text_10">
      <!-- 0 -->
      <g transform="translate(43.8075 327.239219) scale(0.1 -0.1)">
       <use xlink:href="#DejaVuSans-30"/>
      </g>
     </g>
    </g>
    <g id="ytick_2">
     <g id="line2d_10">
      <g>
       <use xlink:href="#mc9c689c19e" x="57.17" y="284.429213" style="stroke: #000000; stroke-width: 0.8"/>
      </g>
     </g>
     <g id="text_11">
      <!-- 250 -->
      <g transform="translate(31.0825 288.228432) scale(0.1 -0.1)">
       <use xlink:href="#DejaVuSans-32"/>
       <use xlink:href="#DejaVuSans-35" x="63.623047"/>
       <use xlink:href="#DejaVuSans-30" x="127.246094"/>
      </g>
     </g>
    </g>
    <g id="ytick_3">
     <g id="line2d_11">
      <g>
       <use xlink:href="#mc9c689c19e" x="57.17" y="245.418427" style="stroke: #000000; stroke-width: 0.8"/>
      </g>
     </g>
     <g id="text_12">
      <!-- 500 -->
      <g transform="translate(31.0825 249.217645) scale(0.1 -0.1)">
       <use xlink:href="#DejaVuSans-35"/>
       <use xlink:href="#DejaVuSans-30" x="63.623047"/>
       <use xlink:href="#DejaVuSans-30" x="127.246094"/>
      </g>
     </g>
    </g>
    <g id="ytick_4">
     <g id="line2d_12">
      <g>
       <use xlink:href="#mc9c689c19e" x="57.17" y="206.40764" style="stroke: #000000; stroke-width: 0.8"/>
      </g>
     </g>
     <g id="text_13">
      <!-- 750 -->
      <g transform="translate(31.0825 210.206859) scale(0.1 -0.1)">
       <defs>
        <path id="DejaVuSans-37" d="M 525 4666 
L 3525 4666 
L 3525 4397 
L 1831 0 
L 1172 0 
L 2766 4134 
L 525 4134 
L 525 4666 
z
" transform="scale(0.015625)"/>
       </defs>
       <use xlink:href="#DejaVuSans-37"/>
       <use xlink:href="#DejaVuSans-35" x="63.623047"/>
       <use xlink:href="#DejaVuSans-30" x="127.246094"/>
      </g>
     </g>
    </g>
    <g id="ytick_5">
     <g id="line2d_13">
      <g>
       <use xlink:href="#mc9c689c19e" x="57.17" y="167.396853" style="stroke: #000000; stroke-width: 0.8"/>
      </g>
     </g>
     <g id="text_14">
      <!-- 1000 -->
      <g transform="translate(24.72 171.196072) scale(0.1 -0.1)">
       <use xlink:href="#DejaVuSans-31"/>
       <use xlink:href="#DejaVuSans-30" x="63.623047"/>
       <use xlink:href="#DejaVuSans-30" x="127.246094"/>
       <use xlink:href="#DejaVuSans-30" x="190.869141"/>
      </g>
     </g>
    </g>
    <g id="ytick_6">
     <g id="line2d_14">
      <g>
       <use xlink:href="#mc9c689c19e" x="57.17" y="128.386067" style="stroke: #000000; stroke-width: 0.8"/>
      </g>
     </g>
     <g id="text_15">
      <!-- 1250 -->
      <g transform="translate(24.72 132.185286) scale(0.1 -0.1)">
       <use xlink:href="#DejaVuSans-31"/>
       <use xlink:href="#DejaVuSans-32" x="63.623047"/>
       <use xlink:href="#DejaVuSans-35" x="127.246094"/>
       <use xlink:href="#DejaVuSans-30" x="190.869141"/>
      </g>
     </g>
    </g>
    <g id="ytick_7">
     <g id="line2d_15">
      <g>
       <use xlink:href="#mc9c689c19e" x="57.17" y="89.37528" style="stroke: #000000; stroke-width: 0.8"/>
      </g>
     </g>
     <g id="text_16">
      <!-- 1500 -->
      <g transform="translate(24.72 93.174499) scale(0.1 -0.1)">
       <use xlink:href="#DejaVuSans-31"/>
       <use xlink:href="#DejaVuSans-35" x="63.623047"/>
       <use xlink:href="#DejaVuSans-30" x="127.246094"/>
       <use xlink:href="#DejaVuSans-30" x="190.869141"/>
      </g>
     </g>
    </g>
    <g id="ytick_8">
     <g id="line2d_16">
      <g>
       <use xlink:href="#mc9c689c19e" x="57.17" y="50.364494" style="stroke: #000000; stroke-width: 0.8"/>
      </g>
     </g>
     <g id="text_17">
      <!-- 1750 -->
      <g transform="translate(24.72 54.163712) scale(0.1 -0.1)">
       <use xlink:href="#DejaVuSans-31"/>
       <use xlink:href="#DejaVuSans-37" x="63.623047"/>
       <use xlink:href="#DejaVuSans-35" x="127.246094"/>
       <use xlink:href="#DejaVuSans-30" x="190.869141"/>
      </g>
     </g>
    </g>
    <g id="text_18">
     <!-- Frequency -->
     <g transform="translate(18.640312 200.989688) rotate(-90) scale(0.1 -0.1)">
      <defs>
       <path id="DejaVuSans-46" d="M 628 4666 
L 3309 4666 
L 3309 4134 
L 1259 4134 
L 1259 2759 
L 3109 2759 
L 3109 2228 
L 1259 2228 
L 1259 0 
L 628 0 
L 628 4666 
z
" transform="scale(0.015625)"/>
       <path id="DejaVuSans-71" d="M 947 1747 
Q 947 1113 1208 752 
Q 1469 391 1925 391 
Q 2381 391 2643 752 
Q 2906 1113 2906 1747 
Q 2906 2381 2643 2742 
Q 2381 3103 1925 3103 
Q 1469 3103 1208 2742 
Q 947 2381 947 1747 
z
M 2906 525 
Q 2725 213 2448 61 
Q 2172 -91 1784 -91 
Q 1150 -91 751 415 
Q 353 922 353 1747 
Q 353 2572 751 3078 
Q 1150 3584 1784 3584 
Q 2172 3584 2448 3432 
Q 2725 3281 2906 2969 
L 2906 3500 
L 3481 3500 
L 3481 -1331 
L 2906 -1331 
L 2906 525 
z
" transform="scale(0.015625)"/>
       <path id="DejaVuSans-75" d="M 544 1381 
L 544 3500 
L 1119 3500 
L 1119 1403 
Q 1119 906 1312 657 
Q 1506 409 1894 409 
Q 2359 409 2629 706 
Q 2900 1003 2900 1516 
L 2900 3500 
L 3475 3500 
L 3475 0 
L 2900 0 
L 2900 538 
Q 2691 219 2414 64 
Q 2138 -91 1772 -91 
Q 1169 -91 856 284 
Q 544 659 544 1381 
z
M 1991 3584 
L 1991 3584 
z
" transform="scale(0.015625)"/>
       <path id="DejaVuSans-6e" d="M 3513 2113 
L 3513 0 
L 2938 0 
L 2938 2094 
Q 2938 2591 2744 2837 
Q 2550 3084 2163 3084 
Q 1697 3084 1428 2787 
Q 1159 2491 1159 1978 
L 1159 0 
L 581 0 
L 581 3500 
L 1159 3500 
L 1159 2956 
Q 1366 3272 1645 3428 
Q 1925 3584 2291 3584 
Q 2894 3584 3203 3211 
Q 3513 2838 3513 2113 
z
" transform="scale(0.015625)"/>
       <path id="DejaVuSans-63" d="M 3122 3366 
L 3122 2828 
Q 2878 2963 2633 3030 
Q 2388 3097 2138 3097 
Q 1578 3097 1268 2742 
Q 959 2388 959 1747 
Q 959 1106 1268 751 
Q 1578 397 2138 397 
Q 2388 397 2633 464 
Q 2878 531 3122 666 
L 3122 134 
Q 2881 22 2623 -34 
Q 2366 -91 2075 -91 
Q 1284 -91 818 406 
Q 353 903 353 1747 
Q 353 2603 823 3093 
Q 1294 3584 2113 3584 
Q 2378 3584 2631 3529 
Q 2884 3475 3122 3366 
z
" transform="scale(0.015625)"/>
       <path id="DejaVuSans-79" d="M 2059 -325 
Q 1816 -950 1584 -1140 
Q 1353 -1331 966 -1331 
L 506 -1331 
L 506 -850 
L 844 -850 
Q 1081 -850 1212 -737 
Q 1344 -625 1503 -206 
L 1606 56 
L 191 3500 
L 800 3500 
L 1894 763 
L 2988 3500 
L 3597 3500 
L 2059 -325 
z
" transform="scale(0.015625)"/>
      </defs>
      <use xlink:href="#DejaVuSans-46"/>
      <use xlink:href="#DejaVuSans-72" x="50.269531"/>
      <use xlink:href="#DejaVuSans-65" x="89.132812"/>
      <use xlink:href="#DejaVuSans-71" x="150.65625"/>
      <use xlink:href="#DejaVuSans-75" x="214.132812"/>
      <use xlink:href="#DejaVuSans-65" x="277.511719"/>
      <use xlink:href="#DejaVuSans-6e" x="339.035156"/>
      <use xlink:href="#DejaVuSans-63" x="402.414062"/>
      <use xlink:href="#DejaVuSans-79" x="457.394531"/>
     </g>
    </g>
   </g>
   <g id="patch_53">
    <path d="M 57.17 323.44 
L 57.17 26.88 
" style="fill: none; stroke: #000000; stroke-width: 0.8; stroke-linejoin: miter; stroke-linecap: square"/>
   </g>
   <g id="patch_54">
    <path d="M 424.289935 323.44 
L 424.289935 26.88 
" style="fill: none; stroke: #000000; stroke-width: 0.8; stroke-linejoin: miter; stroke-linecap: square"/>
   </g>
   <g id="patch_55">
    <path d="M 57.17 323.44 
L 424.289935 323.44 
" style="fill: none; stroke: #000000; stroke-width: 0.8; stroke-linejoin: miter; stroke-linecap: square"/>
   </g>
   <g id="patch_56">
    <path d="M 57.17 26.88 
L 424.289935 26.88 
" style="fill: none; stroke: #000000; stroke-width: 0.8; stroke-linejoin: miter; stroke-linecap: square"/>
   </g>
   <g id="text_19">
    <!-- In-degree Distribution -->
    <g transform="translate(175.058092 20.88) scale(0.12 -0.12)">
     <defs>
      <path id="DejaVuSans-49" d="M 628 4666 
L 1259 4666 
L 1259 0 
L 628 0 
L 628 4666 
z
" transform="scale(0.015625)"/>
      <path id="DejaVuSans-2d" d="M 313 2009 
L 1997 2009 
L 1997 1497 
L 313 1497 
L 313 2009 
z
" transform="scale(0.015625)"/>
      <path id="DejaVuSans-64" d="M 2906 2969 
L 2906 4863 
L 3481 4863 
L 3481 0 
L 2906 0 
L 2906 525 
Q 2725 213 2448 61 
Q 2172 -91 1784 -91 
Q 1150 -91 751 415 
Q 353 922 353 1747 
Q 353 2572 751 3078 
Q 1150 3584 1784 3584 
Q 2172 3584 2448 3432 
Q 2725 3281 2906 2969 
z
M 947 1747 
Q 947 1113 1208 752 
Q 1469 391 1925 391 
Q 2381 391 2643 752 
Q 2906 1113 2906 1747 
Q 2906 2381 2643 2742 
Q 2381 3103 1925 3103 
Q 1469 3103 1208 2742 
Q 947 2381 947 1747 
z
" transform="scale(0.015625)"/>
      <path id="DejaVuSans-20" transform="scale(0.015625)"/>
      <path id="DejaVuSans-69" d="M 603 3500 
L 1178 3500 
L 1178 0 
L 603 0 
L 603 3500 
z
M 603 4863 
L 1178 4863 
L 1178 4134 
L 603 4134 
L 603 4863 
z
" transform="scale(0.015625)"/>
      <path id="DejaVuSans-73" d="M 2834 3397 
L 2834 2853 
Q 2591 2978 2328 3040 
Q 2066 3103 1784 3103 
Q 1356 3103 1142 2972 
Q 928 2841 928 2578 
Q 928 2378 1081 2264 
Q 1234 2150 1697 2047 
L 1894 2003 
Q 2506 1872 2764 1633 
Q 3022 1394 3022 966 
Q 3022 478 2636 193 
Q 2250 -91 1575 -91 
Q 1294 -91 989 -36 
Q 684 19 347 128 
L 347 722 
Q 666 556 975 473 
Q 1284 391 1588 391 
Q 1994 391 2212 530 
Q 2431 669 2431 922 
Q 2431 1156 2273 1281 
Q 2116 1406 1581 1522 
L 1381 1569 
Q 847 1681 609 1914 
Q 372 2147 372 2553 
Q 372 3047 722 3315 
Q 1072 3584 1716 3584 
Q 2034 3584 2315 3537 
Q 2597 3491 2834 3397 
z
" transform="scale(0.015625)"/>
      <path id="DejaVuSans-74" d="M 1172 4494 
L 1172 3500 
L 2356 3500 
L 2356 3053 
L 1172 3053 
L 1172 1153 
Q 1172 725 1289 603 
Q 1406 481 1766 481 
L 2356 481 
L 2356 0 
L 1766 0 
Q 1100 0 847 248 
Q 594 497 594 1153 
L 594 3053 
L 172 3053 
L 172 3500 
L 594 3500 
L 594 4494 
L 1172 4494 
z
" transform="scale(0.015625)"/>
      <path id="DejaVuSans-62" d="M 3116 1747 
Q 3116 2381 2855 2742 
Q 2594 3103 2138 3103 
Q 1681 3103 1420 2742 
Q 1159 2381 1159 1747 
Q 1159 1113 1420 752 
Q 1681 391 2138 391 
Q 2594 391 2855 752 
Q 3116 1113 3116 1747 
z
M 1159 2969 
Q 1341 3281 1617 3432 
Q 1894 3584 2278 3584 
Q 2916 3584 3314 3078 
Q 3713 2572 3713 1747 
Q 3713 922 3314 415 
Q 2916 -91 2278 -91 
Q 1894 -91 1617 61 
Q 1341 213 1159 525 
L 1159 0 
L 581 0 
L 581 4863 
L 1159 4863 
L 1159 2969 
z
" transform="scale(0.015625)"/>
      <path id="DejaVuSans-6f" d="M 1959 3097 
Q 1497 3097 1228 2736 
Q 959 2375 959 1747 
Q 959 1119 1226 758 
Q 1494 397 1959 397 
Q 2419 397 2687 759 
Q 2956 1122 2956 1747 
Q 2956 2369 2687 2733 
Q 2419 3097 1959 3097 
z
M 1959 3584 
Q 2709 3584 3137 3096 
Q 3566 2609 3566 1747 
Q 3566 888 3137 398 
Q 2709 -91 1959 -91 
Q 1206 -91 779 398 
Q 353 888 353 1747 
Q 353 2609 779 3096 
Q 1206 3584 1959 3584 
z
" transform="scale(0.015625)"/>
     </defs>
     <use xlink:href="#DejaVuSans-49"/>
     <use xlink:href="#DejaVuSans-6e" x="29.492188"/>
     <use xlink:href="#DejaVuSans-2d" x="92.871094"/>
     <use xlink:href="#DejaVuSans-64" x="128.955078"/>
     <use xlink:href="#DejaVuSans-65" x="192.431641"/>
     <use xlink:href="#DejaVuSans-67" x="253.955078"/>
     <use xlink:href="#DejaVuSans-72" x="317.431641"/>
     <use xlink:href="#DejaVuSans-65" x="356.294922"/>
     <use xlink:href="#DejaVuSans-65" x="417.818359"/>
     <use xlink:href="#DejaVuSans-20" x="479.341797"/>
     <use xlink:href="#DejaVuSans-44" x="511.128906"/>
     <use xlink:href="#DejaVuSans-69" x="588.130859"/>
     <use xlink:href="#DejaVuSans-73" x="615.914062"/>
     <use xlink:href="#DejaVuSans-74" x="668.013672"/>
     <use xlink:href="#DejaVuSans-72" x="707.222656"/>
     <use xlink:href="#DejaVuSans-69" x="748.335938"/>
     <use xlink:href="#DejaVuSans-62" x="776.119141"/>
     <use xlink:href="#DejaVuSans-75" x="839.595703"/>
     <use xlink:href="#DejaVuSans-74" x="902.974609"/>
     <use xlink:href="#DejaVuSans-69" x="942.183594"/>
     <use xlink:href="#DejaVuSans-6f" x="969.966797"/>
     <use xlink:href="#DejaVuSans-6e" x="1031.148438"/>
    </g>
   </g>
  </g>
  <g id="axes_2">
   <g id="patch_57">
    <path d="M 486.080065 323.44 
L 853.2 323.44 
L 853.2 26.88 
L 486.080065 26.88 
z
" style="fill: #ffffff"/>
   </g>
   <g id="patch_58">
    <path d="M 502.767335 323.44 
L 509.442243 323.44 
L 509.442243 41.001905 
L 502.767335 41.001905 
z
" clip-path="url(#pa07a7b5965)" style="fill: #008000; opacity: 0.7"/>
   </g>
   <g id="patch_59">
    <path d="M 509.442243 323.44 
L 516.117151 323.44 
L 516.117151 323.44 
L 509.442243 323.44 
z
" clip-path="url(#pa07a7b5965)" style="fill: #008000; opacity: 0.7"/>
   </g>
   <g id="patch_60">
    <path d="M 516.117151 323.44 
L 522.792059 323.44 
L 522.792059 323.44 
L 516.117151 323.44 
z
" clip-path="url(#pa07a7b5965)" style="fill: #008000; opacity: 0.7"/>
   </g>
   <g id="patch_61">
    <path d="M 522.792059 323.44 
L 529.466967 323.44 
L 529.466967 323.44 
L 522.792059 323.44 
z
" clip-path="url(#pa07a7b5965)" style="fill: #008000; opacity: 0.7"/>
   </g>
   <g id="patch_62">
    <path d="M 529.466967 323.44 
L 536.141875 323.44 
L 536.141875 323.44 
L 529.466967 323.44 
z
" clip-path="url(#pa07a7b5965)" style="fill: #008000; opacity: 0.7"/>
   </g>
   <g id="patch_63">
    <path d="M 536.141875 323.44 
L 542.816782 323.44 
L 542.816782 323.44 
L 536.141875 323.44 
z
" clip-path="url(#pa07a7b5965)" style="fill: #008000; opacity: 0.7"/>
   </g>
   <g id="patch_64">
    <path d="M 542.816782 323.44 
L 549.49169 323.44 
L 549.49169 323.44 
L 542.816782 323.44 
z
" clip-path="url(#pa07a7b5965)" style="fill: #008000; opacity: 0.7"/>
   </g>
   <g id="patch_65">
    <path d="M 549.49169 323.44 
L 556.166598 323.44 
L 556.166598 323.44 
L 549.49169 323.44 
z
" clip-path="url(#pa07a7b5965)" style="fill: #008000; opacity: 0.7"/>
   </g>
   <g id="patch_66">
    <path d="M 556.166598 323.44 
L 562.841506 323.44 
L 562.841506 323.44 
L 556.166598 323.44 
z
" clip-path="url(#pa07a7b5965)" style="fill: #008000; opacity: 0.7"/>
   </g>
   <g id="patch_67">
    <path d="M 562.841506 323.44 
L 569.516414 323.44 
L 569.516414 323.44 
L 562.841506 323.44 
z
" clip-path="url(#pa07a7b5965)" style="fill: #008000; opacity: 0.7"/>
   </g>
   <g id="patch_68">
    <path d="M 569.516414 323.44 
L 576.191322 323.44 
L 576.191322 323.44 
L 569.516414 323.44 
z
" clip-path="url(#pa07a7b5965)" style="fill: #008000; opacity: 0.7"/>
   </g>
   <g id="patch_69">
    <path d="M 576.191322 323.44 
L 582.86623 323.44 
L 582.86623 323.44 
L 576.191322 323.44 
z
" clip-path="url(#pa07a7b5965)" style="fill: #008000; opacity: 0.7"/>
   </g>
   <g id="patch_70">
    <path d="M 582.86623 323.44 
L 589.541138 323.44 
L 589.541138 323.44 
L 582.86623 323.44 
z
" clip-path="url(#pa07a7b5965)" style="fill: #008000; opacity: 0.7"/>
   </g>
   <g id="patch_71">
    <path d="M 589.541138 323.44 
L 596.216046 323.44 
L 596.216046 323.44 
L 589.541138 323.44 
z
" clip-path="url(#pa07a7b5965)" style="fill: #008000; opacity: 0.7"/>
   </g>
   <g id="patch_72">
    <path d="M 596.216046 323.44 
L 602.890954 323.44 
L 602.890954 323.44 
L 596.216046 323.44 
z
" clip-path="url(#pa07a7b5965)" style="fill: #008000; opacity: 0.7"/>
   </g>
   <g id="patch_73">
    <path d="M 602.890954 323.44 
L 609.565862 323.44 
L 609.565862 323.44 
L 602.890954 323.44 
z
" clip-path="url(#pa07a7b5965)" style="fill: #008000; opacity: 0.7"/>
   </g>
   <g id="patch_74">
    <path d="M 609.565862 323.44 
L 616.240769 323.44 
L 616.240769 307.674288 
L 609.565862 307.674288 
z
" clip-path="url(#pa07a7b5965)" style="fill: #008000; opacity: 0.7"/>
   </g>
   <g id="patch_75">
    <path d="M 616.240769 323.44 
L 622.915677 323.44 
L 622.915677 323.44 
L 616.240769 323.44 
z
" clip-path="url(#pa07a7b5965)" style="fill: #008000; opacity: 0.7"/>
   </g>
   <g id="patch_76">
    <path d="M 622.915677 323.44 
L 629.590585 323.44 
L 629.590585 323.44 
L 622.915677 323.44 
z
" clip-path="url(#pa07a7b5965)" style="fill: #008000; opacity: 0.7"/>
   </g>
   <g id="patch_77">
    <path d="M 629.590585 323.44 
L 636.265493 323.44 
L 636.265493 323.44 
L 629.590585 323.44 
z
" clip-path="url(#pa07a7b5965)" style="fill: #008000; opacity: 0.7"/>
   </g>
   <g id="patch_78">
    <path d="M 636.265493 323.44 
L 642.940401 323.44 
L 642.940401 323.44 
L 636.265493 323.44 
z
" clip-path="url(#pa07a7b5965)" style="fill: #008000; opacity: 0.7"/>
   </g>
   <g id="patch_79">
    <path d="M 642.940401 323.44 
L 649.615309 323.44 
L 649.615309 323.44 
L 642.940401 323.44 
z
" clip-path="url(#pa07a7b5965)" style="fill: #008000; opacity: 0.7"/>
   </g>
   <g id="patch_80">
    <path d="M 649.615309 323.44 
L 656.290217 323.44 
L 656.290217 323.44 
L 649.615309 323.44 
z
" clip-path="url(#pa07a7b5965)" style="fill: #008000; opacity: 0.7"/>
   </g>
   <g id="patch_81">
    <path d="M 656.290217 323.44 
L 662.965125 323.44 
L 662.965125 323.44 
L 656.290217 323.44 
z
" clip-path="url(#pa07a7b5965)" style="fill: #008000; opacity: 0.7"/>
   </g>
   <g id="patch_82">
    <path d="M 662.965125 323.44 
L 669.640033 323.44 
L 669.640033 323.44 
L 662.965125 323.44 
z
" clip-path="url(#pa07a7b5965)" style="fill: #008000; opacity: 0.7"/>
   </g>
   <g id="patch_83">
    <path d="M 669.640033 323.44 
L 676.314941 323.44 
L 676.314941 323.44 
L 669.640033 323.44 
z
" clip-path="url(#pa07a7b5965)" style="fill: #008000; opacity: 0.7"/>
   </g>
   <g id="patch_84">
    <path d="M 676.314941 323.44 
L 682.989848 323.44 
L 682.989848 323.44 
L 676.314941 323.44 
z
" clip-path="url(#pa07a7b5965)" style="fill: #008000; opacity: 0.7"/>
   </g>
   <g id="patch_85">
    <path d="M 682.989848 323.44 
L 689.664756 323.44 
L 689.664756 323.44 
L 682.989848 323.44 
z
" clip-path="url(#pa07a7b5965)" style="fill: #008000; opacity: 0.7"/>
   </g>
   <g id="patch_86">
    <path d="M 689.664756 323.44 
L 696.339664 323.44 
L 696.339664 323.44 
L 689.664756 323.44 
z
" clip-path="url(#pa07a7b5965)" style="fill: #008000; opacity: 0.7"/>
   </g>
   <g id="patch_87">
    <path d="M 696.339664 323.44 
L 703.014572 323.44 
L 703.014572 323.44 
L 696.339664 323.44 
z
" clip-path="url(#pa07a7b5965)" style="fill: #008000; opacity: 0.7"/>
   </g>
   <g id="patch_88">
    <path d="M 703.014572 323.44 
L 709.68948 323.44 
L 709.68948 323.44 
L 703.014572 323.44 
z
" clip-path="url(#pa07a7b5965)" style="fill: #008000; opacity: 0.7"/>
   </g>
   <g id="patch_89">
    <path d="M 709.68948 323.44 
L 716.364388 323.44 
L 716.364388 323.44 
L 709.68948 323.44 
z
" clip-path="url(#pa07a7b5965)" style="fill: #008000; opacity: 0.7"/>
   </g>
   <g id="patch_90">
    <path d="M 716.364388 323.44 
L 723.039296 323.44 
L 723.039296 323.44 
L 716.364388 323.44 
z
" clip-path="url(#pa07a7b5965)" style="fill: #008000; opacity: 0.7"/>
   </g>
   <g id="patch_91">
    <path d="M 723.039296 323.44 
L 729.714204 323.44 
L 729.714204 322.698084 
L 723.039296 322.698084 
z
" clip-path="url(#pa07a7b5965)" style="fill: #008000; opacity: 0.7"/>
   </g>
   <g id="patch_92">
    <path d="M 729.714204 323.44 
L 736.389112 323.44 
L 736.389112 323.44 
L 729.714204 323.44 
z
" clip-path="url(#pa07a7b5965)" style="fill: #008000; opacity: 0.7"/>
   </g>
   <g id="patch_93">
    <path d="M 736.389112 323.44 
L 743.06402 323.44 
L 743.06402 323.44 
L 736.389112 323.44 
z
" clip-path="url(#pa07a7b5965)" style="fill: #008000; opacity: 0.7"/>
   </g>
   <g id="patch_94">
    <path d="M 743.06402 323.44 
L 749.738927 323.44 
L 749.738927 323.44 
L 743.06402 323.44 
z
" clip-path="url(#pa07a7b5965)" style="fill: #008000; opacity: 0.7"/>
   </g>
   <g id="patch_95">
    <path d="M 749.738927 323.44 
L 756.413835 323.44 
L 756.413835 323.44 
L 749.738927 323.44 
z
" clip-path="url(#pa07a7b5965)" style="fill: #008000; opacity: 0.7"/>
   </g>
   <g id="patch_96">
    <path d="M 756.413835 323.44 
L 763.088743 323.44 
L 763.088743 323.44 
L 756.413835 323.44 
z
" clip-path="url(#pa07a7b5965)" style="fill: #008000; opacity: 0.7"/>
   </g>
   <g id="patch_97">
    <path d="M 763.088743 323.44 
L 769.763651 323.44 
L 769.763651 323.44 
L 763.088743 323.44 
z
" clip-path="url(#pa07a7b5965)" style="fill: #008000; opacity: 0.7"/>
   </g>
   <g id="patch_98">
    <path d="M 769.763651 323.44 
L 776.438559 323.44 
L 776.438559 323.44 
L 769.763651 323.44 
z
" clip-path="url(#pa07a7b5965)" style="fill: #008000; opacity: 0.7"/>
   </g>
   <g id="patch_99">
    <path d="M 776.438559 323.44 
L 783.113467 323.44 
L 783.113467 323.44 
L 776.438559 323.44 
z
" clip-path="url(#pa07a7b5965)" style="fill: #008000; opacity: 0.7"/>
   </g>
   <g id="patch_100">
    <path d="M 783.113467 323.44 
L 789.788375 323.44 
L 789.788375 323.44 
L 783.113467 323.44 
z
" clip-path="url(#pa07a7b5965)" style="fill: #008000; opacity: 0.7"/>
   </g>
   <g id="patch_101">
    <path d="M 789.788375 323.44 
L 796.463283 323.44 
L 796.463283 323.44 
L 789.788375 323.44 
z
" clip-path="url(#pa07a7b5965)" style="fill: #008000; opacity: 0.7"/>
   </g>
   <g id="patch_102">
    <path d="M 796.463283 323.44 
L 803.138191 323.44 
L 803.138191 323.44 
L 796.463283 323.44 
z
" clip-path="url(#pa07a7b5965)" style="fill: #008000; opacity: 0.7"/>
   </g>
   <g id="patch_103">
    <path d="M 803.138191 323.44 
L 809.813099 323.44 
L 809.813099 323.44 
L 803.138191 323.44 
z
" clip-path="url(#pa07a7b5965)" style="fill: #008000; opacity: 0.7"/>
   </g>
   <g id="patch_104">
    <path d="M 809.813099 323.44 
L 816.488007 323.44 
L 816.488007 323.44 
L 809.813099 323.44 
z
" clip-path="url(#pa07a7b5965)" style="fill: #008000; opacity: 0.7"/>
   </g>
   <g id="patch_105">
    <path d="M 816.488007 323.44 
L 823.162914 323.44 
L 823.162914 323.44 
L 816.488007 323.44 
z
" clip-path="url(#pa07a7b5965)" style="fill: #008000; opacity: 0.7"/>
   </g>
   <g id="patch_106">
    <path d="M 823.162914 323.44 
L 829.837822 323.44 
L 829.837822 323.44 
L 823.162914 323.44 
z
" clip-path="url(#pa07a7b5965)" style="fill: #008000; opacity: 0.7"/>
   </g>
   <g id="patch_107">
    <path d="M 829.837822 323.44 
L 836.51273 323.44 
L 836.51273 323.39363 
L 829.837822 323.39363 
z
" clip-path="url(#pa07a7b5965)" style="fill: #008000; opacity: 0.7"/>
   </g>
   <g id="matplotlib.axis_3">
    <g id="xtick_9">
     <g id="line2d_17">
      <g>
       <use xlink:href="#md51d7a9144" x="502.767335" y="323.44" style="stroke: #000000; stroke-width: 0.8"/>
      </g>
     </g>
     <g id="text_20">
      <!-- 1.0 -->
      <g transform="translate(494.815773 338.038438) scale(0.1 -0.1)">
       <defs>
        <path id="DejaVuSans-2e" d="M 684 794 
L 1344 794 
L 1344 0 
L 684 0 
L 684 794 
z
" transform="scale(0.015625)"/>
       </defs>
       <use xlink:href="#DejaVuSans-31"/>
       <use xlink:href="#DejaVuSans-2e" x="63.623047"/>
       <use xlink:href="#DejaVuSans-30" x="95.410156"/>
      </g>
     </g>
    </g>
    <g id="xtick_10">
     <g id="line2d_18">
      <g>
       <use xlink:href="#md51d7a9144" x="558.391568" y="323.44" style="stroke: #000000; stroke-width: 0.8"/>
      </g>
     </g>
     <g id="text_21">
      <!-- 1.5 -->
      <g transform="translate(550.440005 338.038438) scale(0.1 -0.1)">
       <use xlink:href="#DejaVuSans-31"/>
       <use xlink:href="#DejaVuSans-2e" x="63.623047"/>
       <use xlink:href="#DejaVuSans-35" x="95.410156"/>
      </g>
     </g>
    </g>
    <g id="xtick_11">
     <g id="line2d_19">
      <g>
       <use xlink:href="#md51d7a9144" x="614.0158" y="323.44" style="stroke: #000000; stroke-width: 0.8"/>
      </g>
     </g>
     <g id="text_22">
      <!-- 2.0 -->
      <g transform="translate(606.064238 338.038438) scale(0.1 -0.1)">
       <use xlink:href="#DejaVuSans-32"/>
       <use xlink:href="#DejaVuSans-2e" x="63.623047"/>
       <use xlink:href="#DejaVuSans-30" x="95.410156"/>
      </g>
     </g>
    </g>
    <g id="xtick_12">
     <g id="line2d_20">
      <g>
       <use xlink:href="#md51d7a9144" x="669.640033" y="323.44" style="stroke: #000000; stroke-width: 0.8"/>
      </g>
     </g>
     <g id="text_23">
      <!-- 2.5 -->
      <g transform="translate(661.68847 338.038438) scale(0.1 -0.1)">
       <use xlink:href="#DejaVuSans-32"/>
       <use xlink:href="#DejaVuSans-2e" x="63.623047"/>
       <use xlink:href="#DejaVuSans-35" x="95.410156"/>
      </g>
     </g>
    </g>
    <g id="xtick_13">
     <g id="line2d_21">
      <g>
       <use xlink:href="#md51d7a9144" x="725.264265" y="323.44" style="stroke: #000000; stroke-width: 0.8"/>
      </g>
     </g>
     <g id="text_24">
      <!-- 3.0 -->
      <g transform="translate(717.312703 338.038438) scale(0.1 -0.1)">
       <use xlink:href="#DejaVuSans-33"/>
       <use xlink:href="#DejaVuSans-2e" x="63.623047"/>
       <use xlink:href="#DejaVuSans-30" x="95.410156"/>
      </g>
     </g>
    </g>
    <g id="xtick_14">
     <g id="line2d_22">
      <g>
       <use xlink:href="#md51d7a9144" x="780.888498" y="323.44" style="stroke: #000000; stroke-width: 0.8"/>
      </g>
     </g>
     <g id="text_25">
      <!-- 3.5 -->
      <g transform="translate(772.936935 338.038438) scale(0.1 -0.1)">
       <use xlink:href="#DejaVuSans-33"/>
       <use xlink:href="#DejaVuSans-2e" x="63.623047"/>
       <use xlink:href="#DejaVuSans-35" x="95.410156"/>
      </g>
     </g>
    </g>
    <g id="xtick_15">
     <g id="line2d_23">
      <g>
       <use xlink:href="#md51d7a9144" x="836.51273" y="323.44" style="stroke: #000000; stroke-width: 0.8"/>
      </g>
     </g>
     <g id="text_26">
      <!-- 4.0 -->
      <g transform="translate(828.561168 338.038438) scale(0.1 -0.1)">
       <defs>
        <path id="DejaVuSans-34" d="M 2419 4116 
L 825 1625 
L 2419 1625 
L 2419 4116 
z
M 2253 4666 
L 3047 4666 
L 3047 1625 
L 3713 1625 
L 3713 1100 
L 3047 1100 
L 3047 0 
L 2419 0 
L 2419 1100 
L 313 1100 
L 313 1709 
L 2253 4666 
z
" transform="scale(0.015625)"/>
       </defs>
       <use xlink:href="#DejaVuSans-34"/>
       <use xlink:href="#DejaVuSans-2e" x="63.623047"/>
       <use xlink:href="#DejaVuSans-30" x="95.410156"/>
      </g>
     </g>
    </g>
    <g id="text_27">
     <!-- Degree -->
     <g transform="translate(651.443158 351.716563) scale(0.1 -0.1)">
      <use xlink:href="#DejaVuSans-44"/>
      <use xlink:href="#DejaVuSans-65" x="77.001953"/>
      <use xlink:href="#DejaVuSans-67" x="138.525391"/>
      <use xlink:href="#DejaVuSans-72" x="202.001953"/>
      <use xlink:href="#DejaVuSans-65" x="240.865234"/>
      <use xlink:href="#DejaVuSans-65" x="302.388672"/>
     </g>
    </g>
   </g>
   <g id="matplotlib.axis_4">
    <g id="ytick_9">
     <g id="line2d_24">
      <g>
       <use xlink:href="#mc9c689c19e" x="486.080065" y="323.44" style="stroke: #000000; stroke-width: 0.8"/>
      </g>
     </g>
     <g id="text_28">
      <!-- 0 -->
      <g transform="translate(472.717565 327.239219) scale(0.1 -0.1)">
       <use xlink:href="#DejaVuSans-30"/>
      </g>
     </g>
    </g>
    <g id="ytick_10">
     <g id="line2d_25">
      <g>
       <use xlink:href="#mc9c689c19e" x="486.080065" y="277.070259" style="stroke: #000000; stroke-width: 0.8"/>
      </g>
     </g>
     <g id="text_29">
      <!-- 1000 -->
      <g transform="translate(453.630065 280.869477) scale(0.1 -0.1)">
       <use xlink:href="#DejaVuSans-31"/>
       <use xlink:href="#DejaVuSans-30" x="63.623047"/>
       <use xlink:href="#DejaVuSans-30" x="127.246094"/>
       <use xlink:href="#DejaVuSans-30" x="190.869141"/>
      </g>
     </g>
    </g>
    <g id="ytick_11">
     <g id="line2d_26">
      <g>
       <use xlink:href="#mc9c689c19e" x="486.080065" y="230.700517" style="stroke: #000000; stroke-width: 0.8"/>
      </g>
     </g>
     <g id="text_30">
      <!-- 2000 -->
      <g transform="translate(453.630065 234.499736) scale(0.1 -0.1)">
       <use xlink:href="#DejaVuSans-32"/>
       <use xlink:href="#DejaVuSans-30" x="63.623047"/>
       <use xlink:href="#DejaVuSans-30" x="127.246094"/>
       <use xlink:href="#DejaVuSans-30" x="190.869141"/>
      </g>
     </g>
    </g>
    <g id="ytick_12">
     <g id="line2d_27">
      <g>
       <use xlink:href="#mc9c689c19e" x="486.080065" y="184.330776" style="stroke: #000000; stroke-width: 0.8"/>
      </g>
     </g>
     <g id="text_31">
      <!-- 3000 -->
      <g transform="translate(453.630065 188.129994) scale(0.1 -0.1)">
       <use xlink:href="#DejaVuSans-33"/>
       <use xlink:href="#DejaVuSans-30" x="63.623047"/>
       <use xlink:href="#DejaVuSans-30" x="127.246094"/>
       <use xlink:href="#DejaVuSans-30" x="190.869141"/>
      </g>
     </g>
    </g>
    <g id="ytick_13">
     <g id="line2d_28">
      <g>
       <use xlink:href="#mc9c689c19e" x="486.080065" y="137.961034" style="stroke: #000000; stroke-width: 0.8"/>
      </g>
     </g>
     <g id="text_32">
      <!-- 4000 -->
      <g transform="translate(453.630065 141.760253) scale(0.1 -0.1)">
       <use xlink:href="#DejaVuSans-34"/>
       <use xlink:href="#DejaVuSans-30" x="63.623047"/>
       <use xlink:href="#DejaVuSans-30" x="127.246094"/>
       <use xlink:href="#DejaVuSans-30" x="190.869141"/>
      </g>
     </g>
    </g>
    <g id="ytick_14">
     <g id="line2d_29">
      <g>
       <use xlink:href="#mc9c689c19e" x="486.080065" y="91.591293" style="stroke: #000000; stroke-width: 0.8"/>
      </g>
     </g>
     <g id="text_33">
      <!-- 5000 -->
      <g transform="translate(453.630065 95.390511) scale(0.1 -0.1)">
       <use xlink:href="#DejaVuSans-35"/>
       <use xlink:href="#DejaVuSans-30" x="63.623047"/>
       <use xlink:href="#DejaVuSans-30" x="127.246094"/>
       <use xlink:href="#DejaVuSans-30" x="190.869141"/>
      </g>
     </g>
    </g>
    <g id="ytick_15">
     <g id="line2d_30">
      <g>
       <use xlink:href="#mc9c689c19e" x="486.080065" y="45.221551" style="stroke: #000000; stroke-width: 0.8"/>
      </g>
     </g>
     <g id="text_34">
      <!-- 6000 -->
      <g transform="translate(453.630065 49.02077) scale(0.1 -0.1)">
       <defs>
        <path id="DejaVuSans-36" d="M 2113 2584 
Q 1688 2584 1439 2293 
Q 1191 2003 1191 1497 
Q 1191 994 1439 701 
Q 1688 409 2113 409 
Q 2538 409 2786 701 
Q 3034 994 3034 1497 
Q 3034 2003 2786 2293 
Q 2538 2584 2113 2584 
z
M 3366 4563 
L 3366 3988 
Q 3128 4100 2886 4159 
Q 2644 4219 2406 4219 
Q 1781 4219 1451 3797 
Q 1122 3375 1075 2522 
Q 1259 2794 1537 2939 
Q 1816 3084 2150 3084 
Q 2853 3084 3261 2657 
Q 3669 2231 3669 1497 
Q 3669 778 3244 343 
Q 2819 -91 2113 -91 
Q 1303 -91 875 529 
Q 447 1150 447 2328 
Q 447 3434 972 4092 
Q 1497 4750 2381 4750 
Q 2619 4750 2861 4703 
Q 3103 4656 3366 4563 
z
" transform="scale(0.015625)"/>
       </defs>
       <use xlink:href="#DejaVuSans-36"/>
       <use xlink:href="#DejaVuSans-30" x="63.623047"/>
       <use xlink:href="#DejaVuSans-30" x="127.246094"/>
       <use xlink:href="#DejaVuSans-30" x="190.869141"/>
      </g>
     </g>
    </g>
    <g id="text_35">
     <!-- Frequency -->
     <g transform="translate(447.550378 200.989688) rotate(-90) scale(0.1 -0.1)">
      <use xlink:href="#DejaVuSans-46"/>
      <use xlink:href="#DejaVuSans-72" x="50.269531"/>
      <use xlink:href="#DejaVuSans-65" x="89.132812"/>
      <use xlink:href="#DejaVuSans-71" x="150.65625"/>
      <use xlink:href="#DejaVuSans-75" x="214.132812"/>
      <use xlink:href="#DejaVuSans-65" x="277.511719"/>
      <use xlink:href="#DejaVuSans-6e" x="339.035156"/>
      <use xlink:href="#DejaVuSans-63" x="402.414062"/>
      <use xlink:href="#DejaVuSans-79" x="457.394531"/>
     </g>
    </g>
   </g>
   <g id="patch_108">
    <path d="M 486.080065 323.44 
L 486.080065 26.88 
" style="fill: none; stroke: #000000; stroke-width: 0.8; stroke-linejoin: miter; stroke-linecap: square"/>
   </g>
   <g id="patch_109">
    <path d="M 853.2 323.44 
L 853.2 26.88 
" style="fill: none; stroke: #000000; stroke-width: 0.8; stroke-linejoin: miter; stroke-linecap: square"/>
   </g>
   <g id="patch_110">
    <path d="M 486.080065 323.44 
L 853.2 323.44 
" style="fill: none; stroke: #000000; stroke-width: 0.8; stroke-linejoin: miter; stroke-linecap: square"/>
   </g>
   <g id="patch_111">
    <path d="M 486.080065 26.88 
L 853.2 26.88 
" style="fill: none; stroke: #000000; stroke-width: 0.8; stroke-linejoin: miter; stroke-linecap: square"/>
   </g>
   <g id="text_36">
    <!-- Out-degree Distribution -->
    <g transform="translate(598.662845 20.88) scale(0.12 -0.12)">
     <defs>
      <path id="DejaVuSans-4f" d="M 2522 4238 
Q 1834 4238 1429 3725 
Q 1025 3213 1025 2328 
Q 1025 1447 1429 934 
Q 1834 422 2522 422 
Q 3209 422 3611 934 
Q 4013 1447 4013 2328 
Q 4013 3213 3611 3725 
Q 3209 4238 2522 4238 
z
M 2522 4750 
Q 3503 4750 4090 4092 
Q 4678 3434 4678 2328 
Q 4678 1225 4090 567 
Q 3503 -91 2522 -91 
Q 1538 -91 948 565 
Q 359 1222 359 2328 
Q 359 3434 948 4092 
Q 1538 4750 2522 4750 
z
" transform="scale(0.015625)"/>
     </defs>
     <use xlink:href="#DejaVuSans-4f"/>
     <use xlink:href="#DejaVuSans-75" x="78.710938"/>
     <use xlink:href="#DejaVuSans-74" x="142.089844"/>
     <use xlink:href="#DejaVuSans-2d" x="181.298828"/>
     <use xlink:href="#DejaVuSans-64" x="217.382812"/>
     <use xlink:href="#DejaVuSans-65" x="280.859375"/>
     <use xlink:href="#DejaVuSans-67" x="342.382812"/>
     <use xlink:href="#DejaVuSans-72" x="405.859375"/>
     <use xlink:href="#DejaVuSans-65" x="444.722656"/>
     <use xlink:href="#DejaVuSans-65" x="506.246094"/>
     <use xlink:href="#DejaVuSans-20" x="567.769531"/>
     <use xlink:href="#DejaVuSans-44" x="599.556641"/>
     <use xlink:href="#DejaVuSans-69" x="676.558594"/>
     <use xlink:href="#DejaVuSans-73" x="704.341797"/>
     <use xlink:href="#DejaVuSans-74" x="756.441406"/>
     <use xlink:href="#DejaVuSans-72" x="795.650391"/>
     <use xlink:href="#DejaVuSans-69" x="836.763672"/>
     <use xlink:href="#DejaVuSans-62" x="864.546875"/>
     <use xlink:href="#DejaVuSans-75" x="928.023438"/>
     <use xlink:href="#DejaVuSans-74" x="991.402344"/>
     <use xlink:href="#DejaVuSans-69" x="1030.611328"/>
     <use xlink:href="#DejaVuSans-6f" x="1058.394531"/>
     <use xlink:href="#DejaVuSans-6e" x="1119.576172"/>
    </g>
   </g>
  </g>
  <g id="axes_3">
   <g id="patch_112">
    <path d="M 57.17 678.04 
L 424.289935 678.04 
L 424.289935 381.48 
L 57.17 381.48 
z
" style="fill: #ffffff"/>
   </g>
   <g id="patch_113">
    <path d="M 73.85727 678.04 
L 80.532178 678.04 
L 80.532178 395.601905 
L 73.85727 395.601905 
z
" clip-path="url(#p781ca53420)" style="fill: #ff0000; opacity: 0.7"/>
   </g>
   <g id="patch_114">
    <path d="M 80.532178 678.04 
L 87.207086 678.04 
L 87.207086 620.473 
L 80.532178 620.473 
z
" clip-path="url(#p781ca53420)" style="fill: #ff0000; opacity: 0.7"/>
   </g>
   <g id="patch_115">
    <path d="M 87.207086 678.04 
L 93.881993 678.04 
L 93.881993 665.447219 
L 87.207086 665.447219 
z
" clip-path="url(#p781ca53420)" style="fill: #ff0000; opacity: 0.7"/>
   </g>
   <g id="patch_116">
    <path d="M 93.881993 678.04 
L 100.556901 678.04 
L 100.556901 669.045156 
L 93.881993 669.045156 
z
" clip-path="url(#p781ca53420)" style="fill: #ff0000; opacity: 0.7"/>
   </g>
   <g id="patch_117">
    <path d="M 100.556901 678.04 
L 107.231809 678.04 
L 107.231809 669.045156 
L 100.556901 669.045156 
z
" clip-path="url(#p781ca53420)" style="fill: #ff0000; opacity: 0.7"/>
   </g>
   <g id="patch_118">
    <path d="M 107.231809 678.04 
L 113.906717 678.04 
L 113.906717 672.643094 
L 107.231809 672.643094 
z
" clip-path="url(#p781ca53420)" style="fill: #ff0000; opacity: 0.7"/>
   </g>
   <g id="patch_119">
    <path d="M 113.906717 678.04 
L 120.581625 678.04 
L 120.581625 674.442062 
L 113.906717 674.442062 
z
" clip-path="url(#p781ca53420)" style="fill: #ff0000; opacity: 0.7"/>
   </g>
   <g id="patch_120">
    <path d="M 120.581625 678.04 
L 127.256533 678.04 
L 127.256533 672.643094 
L 120.581625 672.643094 
z
" clip-path="url(#p781ca53420)" style="fill: #ff0000; opacity: 0.7"/>
   </g>
   <g id="patch_121">
    <path d="M 127.256533 678.04 
L 133.931441 678.04 
L 133.931441 672.643094 
L 127.256533 672.643094 
z
" clip-path="url(#p781ca53420)" style="fill: #ff0000; opacity: 0.7"/>
   </g>
   <g id="patch_122">
    <path d="M 133.931441 678.04 
L 140.606349 678.04 
L 140.606349 674.442062 
L 133.931441 674.442062 
z
" clip-path="url(#p781ca53420)" style="fill: #ff0000; opacity: 0.7"/>
   </g>
   <g id="patch_123">
    <path d="M 140.606349 678.04 
L 147.281257 678.04 
L 147.281257 678.04 
L 140.606349 678.04 
z
" clip-path="url(#p781ca53420)" style="fill: #ff0000; opacity: 0.7"/>
   </g>
   <g id="patch_124">
    <path d="M 147.281257 678.04 
L 153.956165 678.04 
L 153.956165 672.643094 
L 147.281257 672.643094 
z
" clip-path="url(#p781ca53420)" style="fill: #ff0000; opacity: 0.7"/>
   </g>
   <g id="patch_125">
    <path d="M 153.956165 678.04 
L 160.631073 678.04 
L 160.631073 678.04 
L 153.956165 678.04 
z
" clip-path="url(#p781ca53420)" style="fill: #ff0000; opacity: 0.7"/>
   </g>
   <g id="patch_126">
    <path d="M 160.631073 678.04 
L 167.30598 678.04 
L 167.30598 678.04 
L 160.631073 678.04 
z
" clip-path="url(#p781ca53420)" style="fill: #ff0000; opacity: 0.7"/>
   </g>
   <g id="patch_127">
    <path d="M 167.30598 678.04 
L 173.980888 678.04 
L 173.980888 678.04 
L 167.30598 678.04 
z
" clip-path="url(#p781ca53420)" style="fill: #ff0000; opacity: 0.7"/>
   </g>
   <g id="patch_128">
    <path d="M 173.980888 678.04 
L 180.655796 678.04 
L 180.655796 678.04 
L 173.980888 678.04 
z
" clip-path="url(#p781ca53420)" style="fill: #ff0000; opacity: 0.7"/>
   </g>
   <g id="patch_129">
    <path d="M 180.655796 678.04 
L 187.330704 678.04 
L 187.330704 678.04 
L 180.655796 678.04 
z
" clip-path="url(#p781ca53420)" style="fill: #ff0000; opacity: 0.7"/>
   </g>
   <g id="patch_130">
    <path d="M 187.330704 678.04 
L 194.005612 678.04 
L 194.005612 678.04 
L 187.330704 678.04 
z
" clip-path="url(#p781ca53420)" style="fill: #ff0000; opacity: 0.7"/>
   </g>
   <g id="patch_131">
    <path d="M 194.005612 678.04 
L 200.68052 678.04 
L 200.68052 678.04 
L 194.005612 678.04 
z
" clip-path="url(#p781ca53420)" style="fill: #ff0000; opacity: 0.7"/>
   </g>
   <g id="patch_132">
    <path d="M 200.68052 678.04 
L 207.355428 678.04 
L 207.355428 678.04 
L 200.68052 678.04 
z
" clip-path="url(#p781ca53420)" style="fill: #ff0000; opacity: 0.7"/>
   </g>
   <g id="patch_133">
    <path d="M 207.355428 678.04 
L 214.030336 678.04 
L 214.030336 678.04 
L 207.355428 678.04 
z
" clip-path="url(#p781ca53420)" style="fill: #ff0000; opacity: 0.7"/>
   </g>
   <g id="patch_134">
    <path d="M 214.030336 678.04 
L 220.705244 678.04 
L 220.705244 678.04 
L 214.030336 678.04 
z
" clip-path="url(#p781ca53420)" style="fill: #ff0000; opacity: 0.7"/>
   </g>
   <g id="patch_135">
    <path d="M 220.705244 678.04 
L 227.380152 678.04 
L 227.380152 678.04 
L 220.705244 678.04 
z
" clip-path="url(#p781ca53420)" style="fill: #ff0000; opacity: 0.7"/>
   </g>
   <g id="patch_136">
    <path d="M 227.380152 678.04 
L 234.055059 678.04 
L 234.055059 678.04 
L 227.380152 678.04 
z
" clip-path="url(#p781ca53420)" style="fill: #ff0000; opacity: 0.7"/>
   </g>
   <g id="patch_137">
    <path d="M 234.055059 678.04 
L 240.729967 678.04 
L 240.729967 678.04 
L 234.055059 678.04 
z
" clip-path="url(#p781ca53420)" style="fill: #ff0000; opacity: 0.7"/>
   </g>
   <g id="patch_138">
    <path d="M 240.729967 678.04 
L 247.404875 678.04 
L 247.404875 678.04 
L 240.729967 678.04 
z
" clip-path="url(#p781ca53420)" style="fill: #ff0000; opacity: 0.7"/>
   </g>
   <g id="patch_139">
    <path d="M 247.404875 678.04 
L 254.079783 678.04 
L 254.079783 678.04 
L 247.404875 678.04 
z
" clip-path="url(#p781ca53420)" style="fill: #ff0000; opacity: 0.7"/>
   </g>
   <g id="patch_140">
    <path d="M 254.079783 678.04 
L 260.754691 678.04 
L 260.754691 676.241031 
L 254.079783 676.241031 
z
" clip-path="url(#p781ca53420)" style="fill: #ff0000; opacity: 0.7"/>
   </g>
   <g id="patch_141">
    <path d="M 260.754691 678.04 
L 267.429599 678.04 
L 267.429599 678.04 
L 260.754691 678.04 
z
" clip-path="url(#p781ca53420)" style="fill: #ff0000; opacity: 0.7"/>
   </g>
   <g id="patch_142">
    <path d="M 267.429599 678.04 
L 274.104507 678.04 
L 274.104507 678.04 
L 267.429599 678.04 
z
" clip-path="url(#p781ca53420)" style="fill: #ff0000; opacity: 0.7"/>
   </g>
   <g id="patch_143">
    <path d="M 274.104507 678.04 
L 280.779415 678.04 
L 280.779415 678.04 
L 274.104507 678.04 
z
" clip-path="url(#p781ca53420)" style="fill: #ff0000; opacity: 0.7"/>
   </g>
   <g id="patch_144">
    <path d="M 280.779415 678.04 
L 287.454323 678.04 
L 287.454323 678.04 
L 280.779415 678.04 
z
" clip-path="url(#p781ca53420)" style="fill: #ff0000; opacity: 0.7"/>
   </g>
   <g id="patch_145">
    <path d="M 287.454323 678.04 
L 294.129231 678.04 
L 294.129231 676.241031 
L 287.454323 676.241031 
z
" clip-path="url(#p781ca53420)" style="fill: #ff0000; opacity: 0.7"/>
   </g>
   <g id="patch_146">
    <path d="M 294.129231 678.04 
L 300.804138 678.04 
L 300.804138 678.04 
L 294.129231 678.04 
z
" clip-path="url(#p781ca53420)" style="fill: #ff0000; opacity: 0.7"/>
   </g>
   <g id="patch_147">
    <path d="M 300.804138 678.04 
L 307.479046 678.04 
L 307.479046 678.04 
L 300.804138 678.04 
z
" clip-path="url(#p781ca53420)" style="fill: #ff0000; opacity: 0.7"/>
   </g>
   <g id="patch_148">
    <path d="M 307.479046 678.04 
L 314.153954 678.04 
L 314.153954 678.04 
L 307.479046 678.04 
z
" clip-path="url(#p781ca53420)" style="fill: #ff0000; opacity: 0.7"/>
   </g>
   <g id="patch_149">
    <path d="M 314.153954 678.04 
L 320.828862 678.04 
L 320.828862 678.04 
L 314.153954 678.04 
z
" clip-path="url(#p781ca53420)" style="fill: #ff0000; opacity: 0.7"/>
   </g>
   <g id="patch_150">
    <path d="M 320.828862 678.04 
L 327.50377 678.04 
L 327.50377 678.04 
L 320.828862 678.04 
z
" clip-path="url(#p781ca53420)" style="fill: #ff0000; opacity: 0.7"/>
   </g>
   <g id="patch_151">
    <path d="M 327.50377 678.04 
L 334.178678 678.04 
L 334.178678 678.04 
L 327.50377 678.04 
z
" clip-path="url(#p781ca53420)" style="fill: #ff0000; opacity: 0.7"/>
   </g>
   <g id="patch_152">
    <path d="M 334.178678 678.04 
L 340.853586 678.04 
L 340.853586 678.04 
L 334.178678 678.04 
z
" clip-path="url(#p781ca53420)" style="fill: #ff0000; opacity: 0.7"/>
   </g>
   <g id="patch_153">
    <path d="M 340.853586 678.04 
L 347.528494 678.04 
L 347.528494 678.04 
L 340.853586 678.04 
z
" clip-path="url(#p781ca53420)" style="fill: #ff0000; opacity: 0.7"/>
   </g>
   <g id="patch_154">
    <path d="M 347.528494 678.04 
L 354.203402 678.04 
L 354.203402 678.04 
L 347.528494 678.04 
z
" clip-path="url(#p781ca53420)" style="fill: #ff0000; opacity: 0.7"/>
   </g>
   <g id="patch_155">
    <path d="M 354.203402 678.04 
L 360.87831 678.04 
L 360.87831 678.04 
L 354.203402 678.04 
z
" clip-path="url(#p781ca53420)" style="fill: #ff0000; opacity: 0.7"/>
   </g>
   <g id="patch_156">
    <path d="M 360.87831 678.04 
L 367.553218 678.04 
L 367.553218 678.04 
L 360.87831 678.04 
z
" clip-path="url(#p781ca53420)" style="fill: #ff0000; opacity: 0.7"/>
   </g>
   <g id="patch_157">
    <path d="M 367.553218 678.04 
L 374.228125 678.04 
L 374.228125 678.04 
L 367.553218 678.04 
z
" clip-path="url(#p781ca53420)" style="fill: #ff0000; opacity: 0.7"/>
   </g>
   <g id="patch_158">
    <path d="M 374.228125 678.04 
L 380.903033 678.04 
L 380.903033 678.04 
L 374.228125 678.04 
z
" clip-path="url(#p781ca53420)" style="fill: #ff0000; opacity: 0.7"/>
   </g>
   <g id="patch_159">
    <path d="M 380.903033 678.04 
L 387.577941 678.04 
L 387.577941 678.04 
L 380.903033 678.04 
z
" clip-path="url(#p781ca53420)" style="fill: #ff0000; opacity: 0.7"/>
   </g>
   <g id="patch_160">
    <path d="M 387.577941 678.04 
L 394.252849 678.04 
L 394.252849 678.04 
L 387.577941 678.04 
z
" clip-path="url(#p781ca53420)" style="fill: #ff0000; opacity: 0.7"/>
   </g>
   <g id="patch_161">
    <path d="M 394.252849 678.04 
L 400.927757 678.04 
L 400.927757 678.04 
L 394.252849 678.04 
z
" clip-path="url(#p781ca53420)" style="fill: #ff0000; opacity: 0.7"/>
   </g>
   <g id="patch_162">
    <path d="M 400.927757 678.04 
L 407.602665 678.04 
L 407.602665 676.241031 
L 400.927757 676.241031 
z
" clip-path="url(#p781ca53420)" style="fill: #ff0000; opacity: 0.7"/>
   </g>
   <g id="matplotlib.axis_5">
    <g id="xtick_16">
     <g id="line2d_31">
      <g>
       <use xlink:href="#md51d7a9144" x="73.467835" y="678.04" style="stroke: #000000; stroke-width: 0.8"/>
      </g>
     </g>
     <g id="text_37">
      <!-- 0 -->
      <g transform="translate(70.286585 692.638438) scale(0.1 -0.1)">
       <use xlink:href="#DejaVuSans-30"/>
      </g>
     </g>
    </g>
    <g id="xtick_17">
     <g id="line2d_32">
      <g>
       <use xlink:href="#md51d7a9144" x="151.354742" y="678.04" style="stroke: #000000; stroke-width: 0.8"/>
      </g>
     </g>
     <g id="text_38">
      <!-- 200 -->
      <g transform="translate(141.810992 692.638438) scale(0.1 -0.1)">
       <use xlink:href="#DejaVuSans-32"/>
       <use xlink:href="#DejaVuSans-30" x="63.623047"/>
       <use xlink:href="#DejaVuSans-30" x="127.246094"/>
      </g>
     </g>
    </g>
    <g id="xtick_18">
     <g id="line2d_33">
      <g>
       <use xlink:href="#md51d7a9144" x="229.241649" y="678.04" style="stroke: #000000; stroke-width: 0.8"/>
      </g>
     </g>
     <g id="text_39">
      <!-- 400 -->
      <g transform="translate(219.697899 692.638438) scale(0.1 -0.1)">
       <use xlink:href="#DejaVuSans-34"/>
       <use xlink:href="#DejaVuSans-30" x="63.623047"/>
       <use xlink:href="#DejaVuSans-30" x="127.246094"/>
      </g>
     </g>
    </g>
    <g id="xtick_19">
     <g id="line2d_34">
      <g>
       <use xlink:href="#md51d7a9144" x="307.128555" y="678.04" style="stroke: #000000; stroke-width: 0.8"/>
      </g>
     </g>
     <g id="text_40">
      <!-- 600 -->
      <g transform="translate(297.584805 692.638438) scale(0.1 -0.1)">
       <use xlink:href="#DejaVuSans-36"/>
       <use xlink:href="#DejaVuSans-30" x="63.623047"/>
       <use xlink:href="#DejaVuSans-30" x="127.246094"/>
      </g>
     </g>
    </g>
    <g id="xtick_20">
     <g id="line2d_35">
      <g>
       <use xlink:href="#md51d7a9144" x="385.015462" y="678.04" style="stroke: #000000; stroke-width: 0.8"/>
      </g>
     </g>
     <g id="text_41">
      <!-- 800 -->
      <g transform="translate(375.471712 692.638438) scale(0.1 -0.1)">
       <defs>
        <path id="DejaVuSans-38" d="M 2034 2216 
Q 1584 2216 1326 1975 
Q 1069 1734 1069 1313 
Q 1069 891 1326 650 
Q 1584 409 2034 409 
Q 2484 409 2743 651 
Q 3003 894 3003 1313 
Q 3003 1734 2745 1975 
Q 2488 2216 2034 2216 
z
M 1403 2484 
Q 997 2584 770 2862 
Q 544 3141 544 3541 
Q 544 4100 942 4425 
Q 1341 4750 2034 4750 
Q 2731 4750 3128 4425 
Q 3525 4100 3525 3541 
Q 3525 3141 3298 2862 
Q 3072 2584 2669 2484 
Q 3125 2378 3379 2068 
Q 3634 1759 3634 1313 
Q 3634 634 3220 271 
Q 2806 -91 2034 -91 
Q 1263 -91 848 271 
Q 434 634 434 1313 
Q 434 1759 690 2068 
Q 947 2378 1403 2484 
z
M 1172 3481 
Q 1172 3119 1398 2916 
Q 1625 2713 2034 2713 
Q 2441 2713 2670 2916 
Q 2900 3119 2900 3481 
Q 2900 3844 2670 4047 
Q 2441 4250 2034 4250 
Q 1625 4250 1398 4047 
Q 1172 3844 1172 3481 
z
" transform="scale(0.015625)"/>
       </defs>
       <use xlink:href="#DejaVuSans-38"/>
       <use xlink:href="#DejaVuSans-30" x="63.623047"/>
       <use xlink:href="#DejaVuSans-30" x="127.246094"/>
      </g>
     </g>
    </g>
    <g id="text_42">
     <!-- Frequency -->
     <g transform="translate(214.90028 706.316563) scale(0.1 -0.1)">
      <use xlink:href="#DejaVuSans-46"/>
      <use xlink:href="#DejaVuSans-72" x="50.269531"/>
      <use xlink:href="#DejaVuSans-65" x="89.132812"/>
      <use xlink:href="#DejaVuSans-71" x="150.65625"/>
      <use xlink:href="#DejaVuSans-75" x="214.132812"/>
      <use xlink:href="#DejaVuSans-65" x="277.511719"/>
      <use xlink:href="#DejaVuSans-6e" x="339.035156"/>
      <use xlink:href="#DejaVuSans-63" x="402.414062"/>
      <use xlink:href="#DejaVuSans-79" x="457.394531"/>
     </g>
    </g>
   </g>
   <g id="matplotlib.axis_6">
    <g id="ytick_16">
     <g id="line2d_36">
      <g>
       <use xlink:href="#mc9c689c19e" x="57.17" y="678.04" style="stroke: #000000; stroke-width: 0.8"/>
      </g>
     </g>
     <g id="text_43">
      <!-- 0 -->
      <g transform="translate(43.8075 681.839219) scale(0.1 -0.1)">
       <use xlink:href="#DejaVuSans-30"/>
      </g>
     </g>
    </g>
    <g id="ytick_17">
     <g id="line2d_37">
      <g>
       <use xlink:href="#mc9c689c19e" x="57.17" y="642.060625" style="stroke: #000000; stroke-width: 0.8"/>
      </g>
     </g>
     <g id="text_44">
      <!-- 20 -->
      <g transform="translate(37.445 645.859844) scale(0.1 -0.1)">
       <use xlink:href="#DejaVuSans-32"/>
       <use xlink:href="#DejaVuSans-30" x="63.623047"/>
      </g>
     </g>
    </g>
    <g id="ytick_18">
     <g id="line2d_38">
      <g>
       <use xlink:href="#mc9c689c19e" x="57.17" y="606.08125" style="stroke: #000000; stroke-width: 0.8"/>
      </g>
     </g>
     <g id="text_45">
      <!-- 40 -->
      <g transform="translate(37.445 609.880468) scale(0.1 -0.1)">
       <use xlink:href="#DejaVuSans-34"/>
       <use xlink:href="#DejaVuSans-30" x="63.623047"/>
      </g>
     </g>
    </g>
    <g id="ytick_19">
     <g id="line2d_39">
      <g>
       <use xlink:href="#mc9c689c19e" x="57.17" y="570.101874" style="stroke: #000000; stroke-width: 0.8"/>
      </g>
     </g>
     <g id="text_46">
      <!-- 60 -->
      <g transform="translate(37.445 573.901093) scale(0.1 -0.1)">
       <use xlink:href="#DejaVuSans-36"/>
       <use xlink:href="#DejaVuSans-30" x="63.623047"/>
      </g>
     </g>
    </g>
    <g id="ytick_20">
     <g id="line2d_40">
      <g>
       <use xlink:href="#mc9c689c19e" x="57.17" y="534.122499" style="stroke: #000000; stroke-width: 0.8"/>
      </g>
     </g>
     <g id="text_47">
      <!-- 80 -->
      <g transform="translate(37.445 537.921718) scale(0.1 -0.1)">
       <use xlink:href="#DejaVuSans-38"/>
       <use xlink:href="#DejaVuSans-30" x="63.623047"/>
      </g>
     </g>
    </g>
    <g id="ytick_21">
     <g id="line2d_41">
      <g>
       <use xlink:href="#mc9c689c19e" x="57.17" y="498.143124" style="stroke: #000000; stroke-width: 0.8"/>
      </g>
     </g>
     <g id="text_48">
      <!-- 100 -->
      <g transform="translate(31.0825 501.942343) scale(0.1 -0.1)">
       <use xlink:href="#DejaVuSans-31"/>
       <use xlink:href="#DejaVuSans-30" x="63.623047"/>
       <use xlink:href="#DejaVuSans-30" x="127.246094"/>
      </g>
     </g>
    </g>
    <g id="ytick_22">
     <g id="line2d_42">
      <g>
       <use xlink:href="#mc9c689c19e" x="57.17" y="462.163749" style="stroke: #000000; stroke-width: 0.8"/>
      </g>
     </g>
     <g id="text_49">
      <!-- 120 -->
      <g transform="translate(31.0825 465.962968) scale(0.1 -0.1)">
       <use xlink:href="#DejaVuSans-31"/>
       <use xlink:href="#DejaVuSans-32" x="63.623047"/>
       <use xlink:href="#DejaVuSans-30" x="127.246094"/>
      </g>
     </g>
    </g>
    <g id="ytick_23">
     <g id="line2d_43">
      <g>
       <use xlink:href="#mc9c689c19e" x="57.17" y="426.184374" style="stroke: #000000; stroke-width: 0.8"/>
      </g>
     </g>
     <g id="text_50">
      <!-- 140 -->
      <g transform="translate(31.0825 429.983592) scale(0.1 -0.1)">
       <use xlink:href="#DejaVuSans-31"/>
       <use xlink:href="#DejaVuSans-34" x="63.623047"/>
       <use xlink:href="#DejaVuSans-30" x="127.246094"/>
      </g>
     </g>
    </g>
    <g id="ytick_24">
     <g id="line2d_44">
      <g>
       <use xlink:href="#mc9c689c19e" x="57.17" y="390.204998" style="stroke: #000000; stroke-width: 0.8"/>
      </g>
     </g>
     <g id="text_51">
      <!-- 160 -->
      <g transform="translate(31.0825 394.004217) scale(0.1 -0.1)">
       <use xlink:href="#DejaVuSans-31"/>
       <use xlink:href="#DejaVuSans-36" x="63.623047"/>
       <use xlink:href="#DejaVuSans-30" x="127.246094"/>
      </g>
     </g>
    </g>
    <g id="text_52">
     <!-- Number of Relations -->
     <g transform="translate(25.002812 580.804531) rotate(-90) scale(0.1 -0.1)">
      <defs>
       <path id="DejaVuSans-4e" d="M 628 4666 
L 1478 4666 
L 3547 763 
L 3547 4666 
L 4159 4666 
L 4159 0 
L 3309 0 
L 1241 3903 
L 1241 0 
L 628 0 
L 628 4666 
z
" transform="scale(0.015625)"/>
       <path id="DejaVuSans-6d" d="M 3328 2828 
Q 3544 3216 3844 3400 
Q 4144 3584 4550 3584 
Q 5097 3584 5394 3201 
Q 5691 2819 5691 2113 
L 5691 0 
L 5113 0 
L 5113 2094 
Q 5113 2597 4934 2840 
Q 4756 3084 4391 3084 
Q 3944 3084 3684 2787 
Q 3425 2491 3425 1978 
L 3425 0 
L 2847 0 
L 2847 2094 
Q 2847 2600 2669 2842 
Q 2491 3084 2119 3084 
Q 1678 3084 1418 2786 
Q 1159 2488 1159 1978 
L 1159 0 
L 581 0 
L 581 3500 
L 1159 3500 
L 1159 2956 
Q 1356 3278 1631 3431 
Q 1906 3584 2284 3584 
Q 2666 3584 2933 3390 
Q 3200 3197 3328 2828 
z
" transform="scale(0.015625)"/>
       <path id="DejaVuSans-66" d="M 2375 4863 
L 2375 4384 
L 1825 4384 
Q 1516 4384 1395 4259 
Q 1275 4134 1275 3809 
L 1275 3500 
L 2222 3500 
L 2222 3053 
L 1275 3053 
L 1275 0 
L 697 0 
L 697 3053 
L 147 3053 
L 147 3500 
L 697 3500 
L 697 3744 
Q 697 4328 969 4595 
Q 1241 4863 1831 4863 
L 2375 4863 
z
" transform="scale(0.015625)"/>
       <path id="DejaVuSans-52" d="M 2841 2188 
Q 3044 2119 3236 1894 
Q 3428 1669 3622 1275 
L 4263 0 
L 3584 0 
L 2988 1197 
Q 2756 1666 2539 1819 
Q 2322 1972 1947 1972 
L 1259 1972 
L 1259 0 
L 628 0 
L 628 4666 
L 2053 4666 
Q 2853 4666 3247 4331 
Q 3641 3997 3641 3322 
Q 3641 2881 3436 2590 
Q 3231 2300 2841 2188 
z
M 1259 4147 
L 1259 2491 
L 2053 2491 
Q 2509 2491 2742 2702 
Q 2975 2913 2975 3322 
Q 2975 3731 2742 3939 
Q 2509 4147 2053 4147 
L 1259 4147 
z
" transform="scale(0.015625)"/>
       <path id="DejaVuSans-6c" d="M 603 4863 
L 1178 4863 
L 1178 0 
L 603 0 
L 603 4863 
z
" transform="scale(0.015625)"/>
       <path id="DejaVuSans-61" d="M 2194 1759 
Q 1497 1759 1228 1600 
Q 959 1441 959 1056 
Q 959 750 1161 570 
Q 1363 391 1709 391 
Q 2188 391 2477 730 
Q 2766 1069 2766 1631 
L 2766 1759 
L 2194 1759 
z
M 3341 1997 
L 3341 0 
L 2766 0 
L 2766 531 
Q 2569 213 2275 61 
Q 1981 -91 1556 -91 
Q 1019 -91 701 211 
Q 384 513 384 1019 
Q 384 1609 779 1909 
Q 1175 2209 1959 2209 
L 2766 2209 
L 2766 2266 
Q 2766 2663 2505 2880 
Q 2244 3097 1772 3097 
Q 1472 3097 1187 3025 
Q 903 2953 641 2809 
L 641 3341 
Q 956 3463 1253 3523 
Q 1550 3584 1831 3584 
Q 2591 3584 2966 3190 
Q 3341 2797 3341 1997 
z
" transform="scale(0.015625)"/>
      </defs>
      <use xlink:href="#DejaVuSans-4e"/>
      <use xlink:href="#DejaVuSans-75" x="74.804688"/>
      <use xlink:href="#DejaVuSans-6d" x="138.183594"/>
      <use xlink:href="#DejaVuSans-62" x="235.595703"/>
      <use xlink:href="#DejaVuSans-65" x="299.072266"/>
      <use xlink:href="#DejaVuSans-72" x="360.595703"/>
      <use xlink:href="#DejaVuSans-20" x="401.708984"/>
      <use xlink:href="#DejaVuSans-6f" x="433.496094"/>
      <use xlink:href="#DejaVuSans-66" x="494.677734"/>
      <use xlink:href="#DejaVuSans-20" x="529.882812"/>
      <use xlink:href="#DejaVuSans-52" x="561.669922"/>
      <use xlink:href="#DejaVuSans-65" x="626.652344"/>
      <use xlink:href="#DejaVuSans-6c" x="688.175781"/>
      <use xlink:href="#DejaVuSans-61" x="715.958984"/>
      <use xlink:href="#DejaVuSans-74" x="777.238281"/>
      <use xlink:href="#DejaVuSans-69" x="816.447266"/>
      <use xlink:href="#DejaVuSans-6f" x="844.230469"/>
      <use xlink:href="#DejaVuSans-6e" x="905.412109"/>
      <use xlink:href="#DejaVuSans-73" x="968.791016"/>
     </g>
    </g>
   </g>
   <g id="patch_163">
    <path d="M 57.17 678.04 
L 57.17 381.48 
" style="fill: none; stroke: #000000; stroke-width: 0.8; stroke-linejoin: miter; stroke-linecap: square"/>
   </g>
   <g id="patch_164">
    <path d="M 424.289935 678.04 
L 424.289935 381.48 
" style="fill: none; stroke: #000000; stroke-width: 0.8; stroke-linejoin: miter; stroke-linecap: square"/>
   </g>
   <g id="patch_165">
    <path d="M 57.17 678.04 
L 424.289935 678.04 
" style="fill: none; stroke: #000000; stroke-width: 0.8; stroke-linejoin: miter; stroke-linecap: square"/>
   </g>
   <g id="patch_166">
    <path d="M 57.17 381.48 
L 424.289935 381.48 
" style="fill: none; stroke: #000000; stroke-width: 0.8; stroke-linejoin: miter; stroke-linecap: square"/>
   </g>
   <g id="text_53">
    <!-- Relation Frequency Distribution -->
    <g transform="translate(146.490592 375.48) scale(0.12 -0.12)">
     <use xlink:href="#DejaVuSans-52"/>
     <use xlink:href="#DejaVuSans-65" x="64.982422"/>
     <use xlink:href="#DejaVuSans-6c" x="126.505859"/>
     <use xlink:href="#DejaVuSans-61" x="154.289062"/>
     <use xlink:href="#DejaVuSans-74" x="215.568359"/>
     <use xlink:href="#DejaVuSans-69" x="254.777344"/>
     <use xlink:href="#DejaVuSans-6f" x="282.560547"/>
     <use xlink:href="#DejaVuSans-6e" x="343.742188"/>
     <use xlink:href="#DejaVuSans-20" x="407.121094"/>
     <use xlink:href="#DejaVuSans-46" x="438.908203"/>
     <use xlink:href="#DejaVuSans-72" x="489.177734"/>
     <use xlink:href="#DejaVuSans-65" x="528.041016"/>
     <use xlink:href="#DejaVuSans-71" x="589.564453"/>
     <use xlink:href="#DejaVuSans-75" x="653.041016"/>
     <use xlink:href="#DejaVuSans-65" x="716.419922"/>
     <use xlink:href="#DejaVuSans-6e" x="777.943359"/>
     <use xlink:href="#DejaVuSans-63" x="841.322266"/>
     <use xlink:href="#DejaVuSans-79" x="896.302734"/>
     <use xlink:href="#DejaVuSans-20" x="955.482422"/>
     <use xlink:href="#DejaVuSans-44" x="987.269531"/>
     <use xlink:href="#DejaVuSans-69" x="1064.271484"/>
     <use xlink:href="#DejaVuSans-73" x="1092.054688"/>
     <use xlink:href="#DejaVuSans-74" x="1144.154297"/>
     <use xlink:href="#DejaVuSans-72" x="1183.363281"/>
     <use xlink:href="#DejaVuSans-69" x="1224.476562"/>
     <use xlink:href="#DejaVuSans-62" x="1252.259766"/>
     <use xlink:href="#DejaVuSans-75" x="1315.736328"/>
     <use xlink:href="#DejaVuSans-74" x="1379.115234"/>
     <use xlink:href="#DejaVuSans-69" x="1418.324219"/>
     <use xlink:href="#DejaVuSans-6f" x="1446.107422"/>
     <use xlink:href="#DejaVuSans-6e" x="1507.289062"/>
    </g>
   </g>
  </g>
  <g id="axes_4">
   <g id="text_54">
    <!-- Entities: 7606 -->
    <g transform="translate(522.792059 519.633875) scale(0.12 -0.12)">
     <defs>
      <path id="DejaVuSans-45" d="M 628 4666 
L 3578 4666 
L 3578 4134 
L 1259 4134 
L 1259 2753 
L 3481 2753 
L 3481 2222 
L 1259 2222 
L 1259 531 
L 3634 531 
L 3634 0 
L 628 0 
L 628 4666 
z
" transform="scale(0.015625)"/>
      <path id="DejaVuSans-3a" d="M 750 794 
L 1409 794 
L 1409 0 
L 750 0 
L 750 794 
z
M 750 3309 
L 1409 3309 
L 1409 2516 
L 750 2516 
L 750 3309 
z
" transform="scale(0.015625)"/>
     </defs>
     <use xlink:href="#DejaVuSans-45"/>
     <use xlink:href="#DejaVuSans-6e" x="63.183594"/>
     <use xlink:href="#DejaVuSans-74" x="126.5625"/>
     <use xlink:href="#DejaVuSans-69" x="165.771484"/>
     <use xlink:href="#DejaVuSans-74" x="193.554688"/>
     <use xlink:href="#DejaVuSans-69" x="232.763672"/>
     <use xlink:href="#DejaVuSans-65" x="260.546875"/>
     <use xlink:href="#DejaVuSans-73" x="322.070312"/>
     <use xlink:href="#DejaVuSans-3a" x="374.169922"/>
     <use xlink:href="#DejaVuSans-20" x="407.861328"/>
     <use xlink:href="#DejaVuSans-37" x="439.648438"/>
     <use xlink:href="#DejaVuSans-36" x="503.271484"/>
     <use xlink:href="#DejaVuSans-30" x="566.894531"/>
     <use xlink:href="#DejaVuSans-36" x="630.517578"/>
    </g>
    <!-- Relations: 225 -->
    <g transform="translate(522.792059 533.07125) scale(0.12 -0.12)">
     <use xlink:href="#DejaVuSans-52"/>
     <use xlink:href="#DejaVuSans-65" x="64.982422"/>
     <use xlink:href="#DejaVuSans-6c" x="126.505859"/>
     <use xlink:href="#DejaVuSans-61" x="154.289062"/>
     <use xlink:href="#DejaVuSans-74" x="215.568359"/>
     <use xlink:href="#DejaVuSans-69" x="254.777344"/>
     <use xlink:href="#DejaVuSans-6f" x="282.560547"/>
     <use xlink:href="#DejaVuSans-6e" x="343.742188"/>
     <use xlink:href="#DejaVuSans-73" x="407.121094"/>
     <use xlink:href="#DejaVuSans-3a" x="459.220703"/>
     <use xlink:href="#DejaVuSans-20" x="492.912109"/>
     <use xlink:href="#DejaVuSans-32" x="524.699219"/>
     <use xlink:href="#DejaVuSans-32" x="588.322266"/>
     <use xlink:href="#DejaVuSans-35" x="651.945312"/>
    </g>
    <!-- Triples: 6823 -->
    <g transform="translate(522.792059 546.508625) scale(0.12 -0.12)">
     <defs>
      <path id="DejaVuSans-54" d="M -19 4666 
L 3928 4666 
L 3928 4134 
L 2272 4134 
L 2272 0 
L 1638 0 
L 1638 4134 
L -19 4134 
L -19 4666 
z
" transform="scale(0.015625)"/>
      <path id="DejaVuSans-70" d="M 1159 525 
L 1159 -1331 
L 581 -1331 
L 581 3500 
L 1159 3500 
L 1159 2969 
Q 1341 3281 1617 3432 
Q 1894 3584 2278 3584 
Q 2916 3584 3314 3078 
Q 3713 2572 3713 1747 
Q 3713 922 3314 415 
Q 2916 -91 2278 -91 
Q 1894 -91 1617 61 
Q 1341 213 1159 525 
z
M 3116 1747 
Q 3116 2381 2855 2742 
Q 2594 3103 2138 3103 
Q 1681 3103 1420 2742 
Q 1159 2381 1159 1747 
Q 1159 1113 1420 752 
Q 1681 391 2138 391 
Q 2594 391 2855 752 
Q 3116 1113 3116 1747 
z
" transform="scale(0.015625)"/>
     </defs>
     <use xlink:href="#DejaVuSans-54"/>
     <use xlink:href="#DejaVuSans-72" x="46.333984"/>
     <use xlink:href="#DejaVuSans-69" x="87.447266"/>
     <use xlink:href="#DejaVuSans-70" x="115.230469"/>
     <use xlink:href="#DejaVuSans-6c" x="178.707031"/>
     <use xlink:href="#DejaVuSans-65" x="206.490234"/>
     <use xlink:href="#DejaVuSans-73" x="268.013672"/>
     <use xlink:href="#DejaVuSans-3a" x="320.113281"/>
     <use xlink:href="#DejaVuSans-20" x="353.804688"/>
     <use xlink:href="#DejaVuSans-36" x="385.591797"/>
     <use xlink:href="#DejaVuSans-38" x="449.214844"/>
     <use xlink:href="#DejaVuSans-32" x="512.837891"/>
     <use xlink:href="#DejaVuSans-33" x="576.460938"/>
    </g>
   </g>
   <g id="text_55">
    <!-- Summary Statistics -->
    <g transform="translate(611.311595 375.48) scale(0.12 -0.12)">
     <defs>
      <path id="DejaVuSans-53" d="M 3425 4513 
L 3425 3897 
Q 3066 4069 2747 4153 
Q 2428 4238 2131 4238 
Q 1616 4238 1336 4038 
Q 1056 3838 1056 3469 
Q 1056 3159 1242 3001 
Q 1428 2844 1947 2747 
L 2328 2669 
Q 3034 2534 3370 2195 
Q 3706 1856 3706 1288 
Q 3706 609 3251 259 
Q 2797 -91 1919 -91 
Q 1588 -91 1214 -16 
Q 841 59 441 206 
L 441 856 
Q 825 641 1194 531 
Q 1563 422 1919 422 
Q 2459 422 2753 634 
Q 3047 847 3047 1241 
Q 3047 1584 2836 1778 
Q 2625 1972 2144 2069 
L 1759 2144 
Q 1053 2284 737 2584 
Q 422 2884 422 3419 
Q 422 4038 858 4394 
Q 1294 4750 2059 4750 
Q 2388 4750 2728 4690 
Q 3069 4631 3425 4513 
z
" transform="scale(0.015625)"/>
     </defs>
     <use xlink:href="#DejaVuSans-53"/>
     <use xlink:href="#DejaVuSans-75" x="63.476562"/>
     <use xlink:href="#DejaVuSans-6d" x="126.855469"/>
     <use xlink:href="#DejaVuSans-6d" x="224.267578"/>
     <use xlink:href="#DejaVuSans-61" x="321.679688"/>
     <use xlink:href="#DejaVuSans-72" x="382.958984"/>
     <use xlink:href="#DejaVuSans-79" x="424.072266"/>
     <use xlink:href="#DejaVuSans-20" x="483.251953"/>
     <use xlink:href="#DejaVuSans-53" x="515.039062"/>
     <use xlink:href="#DejaVuSans-74" x="578.515625"/>
     <use xlink:href="#DejaVuSans-61" x="617.724609"/>
     <use xlink:href="#DejaVuSans-74" x="679.003906"/>
     <use xlink:href="#DejaVuSans-69" x="718.212891"/>
     <use xlink:href="#DejaVuSans-73" x="745.996094"/>
     <use xlink:href="#DejaVuSans-74" x="798.095703"/>
     <use xlink:href="#DejaVuSans-69" x="837.304688"/>
     <use xlink:href="#DejaVuSans-63" x="865.087891"/>
     <use xlink:href="#DejaVuSans-73" x="920.068359"/>
    </g>
   </g>
  </g>
 </g>
 <defs>
  <clipPath id="pbe419da3d1">
   <rect x="57.17" y="26.88" width="367.119935" height="296.56"/>
  </clipPath>
  <clipPath id="pa07a7b5965">
   <rect x="486.080065" y="26.88" width="367.119935" height="296.56"/>
  </clipPath>
  <clipPath id="p781ca53420">
   <rect x="57.17" y="381.48" width="367.119935" height="296.56"/>
  </clipPath>
 </defs>
</svg>
